<svg xmlns="http://www.w3.org/2000/svg" width="512" height="512" viewBox="0 0 512 512" version="1.1"><path d="M 418.214 337.011 L 414.928 339.015 415.570 351.475 C 415.923 358.328, 416.276 364.737, 416.356 365.718 C 416.435 366.698, 416.013 367.500, 415.417 367.500 C 414.821 367.500, 412.796 366.145, 410.917 364.488 C 409.038 362.832, 405.277 358.894, 402.559 355.738 C 399.842 352.582, 396.900 350, 396.022 350 C 395.143 350, 392.906 351.268, 391.050 352.817 L 387.676 355.634 397.124 365.067 C 402.320 370.255, 408.679 376.075, 411.255 378 C 413.834 379.928, 416.010 382.398, 416.097 383.500 C 416.184 384.600, 416.209 386.957, 416.152 388.739 C 416.094 390.520, 415.623 394.570, 415.105 397.739 C 414.586 400.907, 413.877 404.225, 413.528 405.111 C 413.072 406.267, 413.841 407.171, 416.256 408.317 C 418.105 409.195, 420.589 409.659, 421.776 409.348 C 422.963 409.038, 424.154 408.045, 424.423 407.142 C 424.691 406.239, 425.269 401.900, 425.706 397.500 C 426.143 393.100, 426.357 378.250, 426.182 364.500 C 425.930 344.735, 425.559 339.029, 424.409 337.250 C 423.608 336.012, 422.627 335.002, 422.227 335.004 C 421.827 335.006, 420.021 335.909, 418.214 337.011 M 377.419 359.369 C 375.724 359.991, 372.574 361.808, 370.419 363.406 C 368.264 365.004, 365.697 367.254, 364.716 368.406 C 363.735 369.558, 362.093 372.080, 361.068 374.010 C 360.043 375.941, 358.890 380.033, 358.506 383.103 C 357.932 387.696, 358.204 389.603, 360.038 393.866 C 361.263 396.715, 363.570 400.143, 365.164 401.485 C 366.758 402.826, 369.637 404.358, 371.563 404.890 C 373.488 405.421, 376.114 405.666, 377.398 405.433 C 378.683 405.200, 381.446 404.294, 383.539 403.419 C 385.632 402.545, 389.241 399.877, 391.560 397.492 C 393.879 395.106, 396.586 391.032, 397.577 388.438 L 399.378 383.722 396.633 381.361 C 395.124 380.062, 393.473 379, 392.965 379 C 392.456 379, 391.107 380.829, 389.967 383.065 C 388.826 385.301, 386.613 388.469, 385.050 390.105 C 383.486 391.742, 380.919 393.450, 379.344 393.901 C 377.770 394.353, 375.497 394.358, 374.293 393.913 C 373.090 393.467, 371.357 391.657, 370.443 389.889 C 369.351 387.778, 368.959 385.345, 369.300 382.799 C 369.586 380.668, 370.576 377.769, 371.501 376.358 C 372.427 374.944, 376.058 372.488, 379.584 370.889 L 385.985 367.987 385.567 365.743 C 385.337 364.510, 385.115 362.970, 385.074 362.321 C 385.033 361.673, 384.293 360.436, 383.429 359.571 C 382.564 358.707, 381.552 358.054, 381.179 358.119 C 380.805 358.185, 379.114 358.747, 377.419 359.369 M 329.185 377.628 C 327.708 378.283, 325.329 379.873, 323.898 381.160 C 322.467 382.447, 320.617 384.850, 319.786 386.500 C 318.955 388.150, 318.039 391.353, 317.751 393.617 L 317.226 397.734 320.494 398.737 L 323.761 399.740 324.858 396.078 C 325.462 394.065, 327.203 391.236, 328.728 389.792 C 330.252 388.349, 332.175 387.077, 333 386.965 C 333.825 386.854, 335.215 386.816, 336.089 386.882 C 336.964 386.947, 338.201 388.146, 338.839 389.547 C 339.478 390.948, 340 392.289, 340 392.527 C 340 392.765, 338.292 393.831, 336.205 394.895 C 334.118 395.960, 330.546 398.854, 328.267 401.326 C 325.827 403.973, 323.858 407.242, 323.475 409.280 C 323.009 411.767, 323.390 413.845, 324.833 416.673 C 325.937 418.836, 328.022 421.145, 329.467 421.803 C 330.912 422.461, 333.593 423, 335.425 423 C 337.257 423, 340.273 422.364, 342.128 421.587 C 343.983 420.810, 346.834 419.025, 348.464 417.622 C 350.525 415.847, 352.126 415.244, 353.721 415.645 C 355.054 415.979, 357.058 415.537, 358.507 414.587 C 359.878 413.689, 361 412.577, 361 412.116 C 361 411.656, 359.955 409.739, 358.678 407.857 C 357.400 405.975, 356.522 403.933, 356.727 403.319 C 356.932 402.705, 355.982 399.455, 354.617 396.096 C 353.252 392.737, 350.651 387.697, 348.836 384.896 C 346.851 381.833, 344.038 379.040, 341.776 377.886 C 339.707 376.830, 336.632 376.072, 334.943 376.201 C 333.253 376.330, 330.662 376.972, 329.185 377.628 M 301.250 394.031 C 300.012 394.529, 299 395.625, 299 396.468 C 299 397.525, 297.993 398.007, 295.750 398.022 C 293.962 398.034, 290.700 398.875, 288.500 399.890 C 286.300 400.905, 283.556 402.808, 282.402 404.118 C 281.248 405.428, 279.561 408.422, 278.652 410.770 C 277.743 413.119, 277 417.521, 277 420.552 C 277 423.584, 277.679 427.689, 278.509 429.676 C 279.339 431.662, 281.226 434.407, 282.703 435.776 C 284.180 437.144, 286.861 438.880, 288.662 439.632 C 290.463 440.384, 293.188 440.990, 294.718 440.978 C 296.248 440.966, 299.335 440.122, 301.579 439.104 C 303.822 438.085, 306.587 436.070, 307.723 434.626 C 308.858 433.182, 310.458 432, 311.277 432 C 312.096 432, 313.038 433.012, 313.370 434.250 C 313.701 435.488, 313.979 438.232, 313.986 440.349 C 313.997 443.375, 313.336 444.818, 310.894 447.099 C 308.639 449.206, 306.791 449.998, 304.144 449.994 C 302.140 449.990, 299.196 449.307, 297.601 448.476 C 296.007 447.645, 294.636 447.085, 294.554 447.232 C 294.472 447.379, 293.864 448.759, 293.202 450.297 C 292.541 451.835, 292 453.996, 292 455.098 C 292 456.440, 293.146 457.581, 295.468 458.551 C 297.375 459.348, 300.765 460, 303.001 460 C 305.310 460, 309.105 458.965, 311.783 457.606 C 314.377 456.289, 317.927 453.639, 319.672 451.718 C 321.417 449.797, 323.253 446.712, 323.753 444.862 C 324.253 443.013, 324.540 439.925, 324.390 438 C 324.240 436.075, 323.711 432.925, 323.214 431 C 322.717 429.075, 321.332 425.587, 320.135 423.250 C 318.938 420.913, 317.518 419, 316.980 419 C 316.441 419, 316 417.917, 316 416.593 C 316 415.269, 314.650 411.178, 313 407.500 C 311.350 403.822, 310 400.202, 310 399.454 C 310 398.706, 309.478 396.948, 308.839 395.547 C 308.114 393.955, 306.895 393.024, 305.589 393.063 C 304.440 393.098, 302.488 393.534, 301.250 394.031 M 340.500 402.195 C 339.400 402.819, 337.488 404.404, 336.250 405.716 C 335.012 407.029, 334 408.980, 334 410.052 C 334 411.468, 334.689 412, 336.521 412 C 337.908 412, 340.865 410.794, 343.091 409.321 C 346.236 407.240, 347.015 406.180, 346.583 404.571 C 346.278 403.432, 346.021 402.163, 346.014 401.750 C 346.006 401.337, 345.212 401.014, 344.250 401.030 C 343.288 401.047, 341.600 401.571, 340.500 402.195 M 294.096 408.265 C 292.774 408.944, 290.750 410.769, 289.599 412.320 C 288.109 414.327, 287.555 416.437, 287.678 419.633 C 287.774 422.104, 288.548 425.188, 289.399 426.487 C 290.250 427.786, 291.786 429.115, 292.812 429.440 C 293.838 429.766, 296.213 429.390, 298.089 428.604 C 299.965 427.818, 302.563 426.040, 303.863 424.653 L 306.225 422.132 305.674 417.636 C 305.372 415.163, 304.409 411.759, 303.536 410.070 C 302.349 407.774, 301.261 407.004, 299.224 407.015 C 297.726 407.023, 295.418 407.585, 294.096 408.265 M 246.374 417.317 C 244.353 418.354, 241.947 419.944, 241.027 420.851 C 240.108 421.758, 238.349 423.956, 237.120 425.736 C 235.890 427.516, 234.522 431.262, 234.079 434.062 C 233.617 436.984, 233.689 441.094, 234.248 443.714 C 234.783 446.223, 236.437 450.352, 237.922 452.888 C 239.563 455.690, 242.190 458.370, 244.614 459.716 C 246.809 460.935, 250.292 462.141, 252.354 462.397 C 254.415 462.653, 258.357 462.192, 261.114 461.374 C 264.526 460.360, 267.663 458.387, 270.941 455.193 C 273.589 452.612, 276.482 449.066, 277.371 447.313 C 278.259 445.561, 278.729 443.458, 278.416 442.641 C 278.102 441.823, 276.350 440.445, 274.522 439.577 C 272.693 438.710, 270.963 438, 270.676 438 C 270.390 438, 269.645 439.547, 269.021 441.437 C 268.397 443.327, 266.513 446.217, 264.834 447.858 C 262.664 449.980, 260.393 451.033, 256.978 451.503 C 254.062 451.904, 251.354 451.725, 250.087 451.047 C 248.939 450.432, 248 449.276, 248 448.477 C 248 447.679, 251.037 445.487, 254.750 443.607 C 258.462 441.728, 263.464 438.757, 265.864 437.006 L 270.227 433.823 269.570 429.711 C 269.170 427.209, 267.557 423.945, 265.451 421.375 C 263.548 419.053, 260.515 416.665, 258.710 416.069 C 256.906 415.474, 254.219 415.087, 252.739 415.210 C 251.258 415.332, 248.394 416.280, 246.374 417.317 M 188.250 418.034 C 185.912 419.070, 184 420.604, 184 421.442 C 184 422.281, 185.860 428.487, 188.134 435.233 C 190.407 441.980, 192.882 448.715, 193.634 450.200 C 194.385 451.686, 195 453.544, 195 454.329 C 195 455.115, 196.145 458.175, 197.543 461.129 C 198.942 464.083, 200.481 467.175, 200.962 468 C 201.443 468.825, 203.111 472.771, 204.669 476.768 L 207.500 484.036 210.289 483.430 C 211.823 483.097, 217.816 480.501, 223.606 477.662 C 229.395 474.823, 235.438 471.825, 237.033 471 C 238.628 470.175, 240.172 468.905, 240.463 468.178 C 240.754 467.450, 240.487 465.875, 239.868 464.678 C 239.249 463.480, 238.093 461.753, 237.299 460.841 C 236.206 459.586, 235.155 459.382, 232.986 460.004 C 231.408 460.456, 227.180 462.441, 223.591 464.413 C 220.001 466.386, 216.598 468, 216.030 468 C 215.461 468, 213.501 464.738, 211.673 460.750 C 209.845 456.762, 207.395 451.025, 206.229 448 C 205.062 444.975, 202.905 439.125, 201.434 435 C 199.963 430.875, 197.764 425.050, 196.548 422.056 C 195.331 419.062, 193.923 416.508, 193.418 416.381 C 192.913 416.253, 190.588 416.997, 188.250 418.034 M 247.449 427.485 C 245.548 429.501, 244.042 432.354, 243.670 434.645 C 243.330 436.739, 243.447 438.847, 243.928 439.328 C 244.430 439.830, 246.022 439.360, 247.652 438.230 C 249.219 437.144, 252.637 435.054, 255.250 433.586 C 257.863 432.117, 260 430.329, 260 429.613 C 260 428.896, 259.110 427.504, 258.022 426.520 C 256.934 425.535, 254.821 424.596, 253.327 424.432 C 251.315 424.211, 249.791 425.002, 247.449 427.485" stroke="none" fill="#ffffff" fill-rule="evenodd"/><path d="M 124.334 49.415 C 120.393 50.166, 114.093 51.786, 110.334 53.015 C 106.575 54.244, 99.949 57.077, 95.609 59.310 C 91.269 61.543, 84.969 65.386, 81.609 67.851 C 78.249 70.316, 72.859 74.620, 69.632 77.416 C 66.405 80.212, 61.101 85.809, 57.847 89.853 C 54.592 93.897, 50.371 99.643, 48.466 102.621 C 46.561 105.598, 42.960 112.101, 40.464 117.071 C 37.968 122.041, 34.614 130.023, 33.011 134.808 C 31.408 139.594, 29.399 147.503, 28.548 152.385 C 27.655 157.505, 27 167.093, 27 175.039 C 27 182.617, 27.711 194.294, 28.579 200.989 C 29.448 207.684, 31.658 219.115, 33.490 226.390 C 35.323 233.666, 38.943 244.992, 41.535 251.559 C 44.128 258.127, 47.980 266.952, 50.096 271.171 C 52.212 275.390, 56.274 282.815, 59.123 287.671 C 61.972 292.527, 67.045 300.325, 70.396 305 C 73.747 309.675, 79.832 317.550, 83.917 322.500 C 88.003 327.450, 96.033 336.556, 101.762 342.736 C 107.490 348.915, 118.325 359.574, 125.839 366.422 C 133.352 373.269, 148.022 385.829, 158.437 394.332 C 169.242 403.154, 177.957 409.570, 178.730 409.274 C 179.475 408.988, 179.953 408.424, 179.792 408.022 C 179.632 407.619, 171.407 400.673, 161.516 392.586 C 151.624 384.500, 138.574 373.455, 132.516 368.042 C 126.457 362.630, 116.072 352.643, 109.437 345.851 C 102.802 339.058, 92.531 327.650, 86.611 320.501 C 80.691 313.351, 72.568 302.551, 68.560 296.501 C 64.551 290.450, 58.991 281.225, 56.202 276 C 53.414 270.775, 49.120 261.550, 46.659 255.500 C 44.199 249.450, 40.800 240, 39.107 234.500 C 37.415 229, 35.159 220.225, 34.095 215 C 33.031 209.775, 31.617 200.801, 30.952 195.057 C 30.219 188.721, 29.963 178.692, 30.300 169.557 C 30.679 159.277, 31.485 152.120, 32.840 147 C 33.932 142.875, 36.202 135.734, 37.886 131.131 C 39.569 126.528, 43.037 118.878, 45.591 114.131 C 48.145 109.384, 52.161 102.800, 54.515 99.500 C 56.869 96.200, 61.399 90.638, 64.582 87.139 C 67.764 83.641, 74.392 77.669, 79.310 73.868 C 84.228 70.067, 91.083 65.374, 94.543 63.439 C 98.002 61.504, 104.483 58.589, 108.945 56.961 C 113.406 55.333, 120.928 53.325, 125.659 52.500 C 130.391 51.675, 137.744 51, 142 51 C 146.256 51, 153.632 51.679, 158.391 52.509 C 163.150 53.339, 169.846 54.976, 173.272 56.147 C 176.697 57.318, 183.550 60.160, 188.500 62.462 C 193.450 64.764, 201.241 68.972, 205.812 71.813 C 210.384 74.655, 216.909 79.108, 220.312 81.710 C 223.716 84.311, 231.158 90.954, 236.851 96.470 C 242.544 101.987, 249.453 109.273, 252.205 112.663 L 257.208 118.826 264.426 110.163 C 268.395 105.398, 274.986 98.390, 279.072 94.589 C 283.157 90.788, 291.225 84.154, 297 79.845 C 302.775 75.537, 313.125 69.132, 320 65.612 C 326.875 62.092, 335.802 58.034, 339.838 56.596 C 343.874 55.157, 351.020 53.309, 355.719 52.490 C 360.418 51.670, 367.744 51, 372 51 C 376.256 51, 383.509 51.660, 388.119 52.468 C 392.729 53.275, 399.824 55.069, 403.887 56.455 C 407.950 57.840, 414.618 60.778, 418.706 62.983 C 422.793 65.188, 429.396 69.444, 433.379 72.441 C 437.361 75.438, 444.202 81.628, 448.580 86.195 C 452.958 90.763, 458.924 98.071, 461.838 102.435 C 464.751 106.799, 469.107 114.449, 471.517 119.435 C 473.926 124.421, 477.012 131.875, 478.373 136 C 479.734 140.125, 481.629 147.100, 482.585 151.500 C 483.843 157.292, 484.311 163.916, 484.283 175.500 C 484.259 185.206, 483.585 195.827, 482.569 202.500 C 481.649 208.550, 479.776 217.976, 478.408 223.447 C 477.040 228.918, 474.761 236.793, 473.344 240.947 C 471.927 245.101, 468.977 252.775, 466.790 258 C 464.603 263.225, 460.762 271.325, 458.255 276 C 455.748 280.675, 451.019 288.663, 447.746 293.750 C 444.473 298.837, 441.625 303, 441.418 303 C 441.210 303, 440.178 301.313, 439.123 299.250 C 438.068 297.188, 434.345 292.800, 430.848 289.500 C 427.351 286.200, 421.647 281.338, 418.172 278.695 L 411.855 273.889 419.668 265.195 C 423.965 260.413, 431.523 252, 436.463 246.500 C 441.404 241, 447.768 234.826, 450.605 232.779 C 454.809 229.748, 456.243 227.895, 458.344 222.779 L 460.922 216.500 456.711 212.753 C 454.395 210.692, 452.050 209.018, 451.500 209.033 C 450.950 209.049, 448.045 210.735, 445.045 212.781 C 440.649 215.778, 439.183 217.522, 437.491 221.764 C 435.987 225.534, 430.645 232.562, 418.662 246.533 L 401.933 266.039 394.109 260.083 C 389.805 256.807, 385.070 252.684, 383.587 250.921 C 382.103 249.157, 379.863 245.642, 378.610 243.107 C 377.356 240.573, 375.303 235.692, 374.047 232.260 C 372.791 228.827, 370.311 223.977, 368.536 221.480 C 366.762 218.984, 363.796 215.825, 361.946 214.460 C 360.096 213.095, 356.989 211.536, 355.041 210.995 C 353.094 210.454, 348.575 210.011, 345 210.011 C 341.425 210.011, 336.901 210.455, 334.946 210.998 C 332.992 211.541, 330.380 212.929, 329.143 214.082 C 327.905 215.235, 327.064 216.691, 327.272 217.317 C 327.481 217.944, 331.180 219.261, 335.492 220.244 C 339.805 221.227, 343.933 222.529, 344.666 223.138 C 345.400 223.747, 346 225.904, 346 227.931 C 346 229.959, 345.372 232.476, 344.605 233.526 C 343.584 234.921, 342.118 235.390, 339.144 235.271 C 336.908 235.182, 331.806 233.735, 327.808 232.055 C 323.809 230.375, 320.192 229, 319.769 229 C 319.346 229, 319 230.593, 319 232.540 C 319 234.487, 319.879 237.803, 320.953 239.908 C 322.028 242.014, 325.756 246.384, 329.239 249.619 L 335.572 255.500 334.312 260.457 C 333.321 264.360, 333.314 265.580, 334.277 266.192 C 334.949 266.620, 341.509 266.976, 348.854 266.985 L 362.208 267 368.854 270.508 C 372.509 272.438, 377.939 276.177, 380.921 278.818 L 386.341 283.620 383.983 286.810 C 382.685 288.564, 381.089 290, 380.434 290 C 379.780 290, 378.704 289.348, 378.042 288.551 C 377.381 287.754, 375.414 286.650, 373.670 286.098 C 371.407 285.381, 368.926 285.467, 365 286.397 L 359.500 287.700 359.760 290.893 L 360.019 294.087 340.485 317.043 C 329.741 329.668, 320.512 341.153, 319.976 342.564 C 319.439 343.976, 319 346.915, 319 349.097 C 319 351.279, 319.696 354.731, 320.548 356.768 C 321.399 358.806, 323.052 361.491, 324.222 362.736 C 325.392 363.981, 327.202 365, 328.246 365 C 329.781 365, 329.469 364.365, 326.611 361.669 C 324.668 359.837, 322.611 357.108, 322.040 355.604 C 321.468 354.100, 321.020 351.212, 321.045 349.185 C 321.070 347.158, 321.632 344.299, 322.295 342.832 C 322.958 341.365, 331.977 330.205, 342.338 318.033 L 361.176 295.902 362.831 297.201 C 363.741 297.915, 369.552 302.684, 375.743 307.798 C 381.934 312.911, 386.967 317.411, 386.927 317.798 C 386.887 318.184, 378.205 328.625, 367.633 341 C 352.942 358.197, 347.625 363.758, 345.075 364.593 C 342.499 365.436, 342.124 365.834, 343.432 366.336 C 344.364 366.693, 346.359 366.349, 347.865 365.570 C 349.370 364.791, 359.129 354.010, 369.551 341.610 L 388.500 319.067 392.126 319.600 L 395.753 320.134 396.453 313.596 C 396.838 310, 396.842 306.079, 396.463 304.883 C 396.083 303.687, 394.620 301.717, 393.211 300.505 L 390.649 298.301 392.902 295.138 L 395.155 291.974 398.074 294.053 C 399.679 295.196, 403.582 299.036, 406.747 302.587 C 409.911 306.138, 414.228 310.248, 416.341 311.721 C 418.454 313.193, 422.679 314.897, 425.730 315.506 L 431.278 316.614 428.139 320.189 C 426.413 322.155, 425 324.042, 425 324.382 C 425 324.722, 425.839 325, 426.865 325 C 428.043 325, 431.686 321.222, 436.748 314.750 C 441.158 309.113, 447.540 300.225, 450.932 295 C 454.323 289.775, 460.192 279.200, 463.975 271.500 C 467.757 263.800, 472.469 253.108, 474.446 247.741 C 476.422 242.373, 479.356 232.876, 480.965 226.635 C 482.574 220.394, 484.658 209.936, 485.596 203.394 C 486.607 196.342, 487.322 184.987, 487.351 175.500 C 487.386 164.167, 486.894 156.941, 485.663 150.725 C 484.708 145.899, 482.541 138.024, 480.848 133.225 C 479.154 128.426, 475.972 120.900, 473.777 116.500 C 471.581 112.100, 467.364 104.840, 464.406 100.366 C 461.448 95.892, 455.816 88.793, 451.892 84.591 C 447.967 80.389, 440.874 74.009, 436.128 70.415 C 431.383 66.820, 422.550 61.442, 416.500 58.462 C 410.202 55.361, 401.653 52.093, 396.500 50.816 C 389.269 49.025, 384.551 48.578, 372.500 48.543 C 361.289 48.511, 355.505 48.968, 349.601 50.351 C 345.257 51.369, 337.006 54.170, 331.265 56.576 C 325.524 58.981, 316.864 63.216, 312.021 65.988 C 307.178 68.759, 298.779 74.342, 293.358 78.393 C 287.936 82.445, 279.630 89.526, 274.899 94.130 C 270.169 98.733, 264.236 104.933, 261.716 107.906 L 257.134 113.313 254.418 109.906 C 252.923 108.033, 246.463 101.325, 240.062 95 C 233.660 88.675, 224.704 80.800, 220.159 77.500 C 215.615 74.200, 207.827 69.168, 202.854 66.317 C 197.880 63.467, 189.619 59.297, 184.496 57.050 C 179.373 54.803, 171.653 52.032, 167.341 50.892 C 161.771 49.419, 155.446 48.707, 145.500 48.434 C 136.282 48.181, 129.052 48.516, 124.334 49.415 M 446.623 214.126 C 443.107 216.314, 441.297 218.334, 439.782 221.761 L 437.721 226.420 441.527 229.710 C 443.620 231.519, 445.641 233, 446.017 233 C 446.392 233, 448.455 231.727, 450.600 230.171 C 453.396 228.142, 455.020 225.889, 456.335 222.213 C 457.345 219.392, 457.893 216.637, 457.555 216.089 C 457.216 215.541, 455.694 214.206, 454.171 213.122 L 451.403 211.151 446.623 214.126 M 333.750 213.658 C 331.688 214.514, 330 215.607, 330 216.088 C 330 216.569, 331.238 217.235, 332.750 217.568 C 334.262 217.902, 337.852 218.820, 340.726 219.608 C 343.775 220.445, 346.379 221.839, 346.976 222.955 C 347.539 224.008, 348 226.219, 348 227.869 C 348 229.520, 347.545 232.068, 346.988 233.532 C 346.431 234.996, 345.107 236.421, 344.045 236.698 C 342.897 236.999, 341.888 238.379, 341.557 240.102 C 341.251 241.696, 340.738 244.354, 340.419 246.009 C 340.099 247.664, 339.483 248.798, 339.049 248.530 C 338.615 248.262, 338.632 246.121, 339.087 243.772 C 339.541 241.422, 339.932 238.999, 339.956 238.386 C 339.980 237.773, 337.978 236.995, 335.506 236.656 C 333.035 236.317, 328.760 234.898, 326.006 233.503 L 321 230.966 321 233.015 C 321 234.142, 321.613 236.532, 322.363 238.326 C 323.112 240.120, 326.954 244.534, 330.899 248.134 L 338.072 254.681 337.036 257.406 C 336.466 258.904, 336 261.168, 336 262.436 L 336 264.742 342.135 265.436 C 345.509 265.818, 348.605 265.763, 349.014 265.315 C 349.423 264.867, 350.043 262.888, 350.393 260.918 C 350.896 258.076, 350.611 256.958, 349.014 255.513 C 347.674 254.300, 347 252.429, 347 249.922 C 347 247.327, 347.806 245.196, 349.589 243.077 C 351.013 241.385, 352.952 240, 353.899 240 C 355.310 240, 355.969 237.974, 357.560 228.750 C 358.627 222.563, 359.500 216.865, 359.500 216.089 C 359.500 215.313, 357.925 214.110, 356 213.415 C 354.075 212.721, 349.125 212.141, 345 212.128 C 340.435 212.113, 336.032 212.712, 333.750 213.658 M 361.526 218.250 C 361.300 218.938, 360.277 224.043, 359.253 229.596 L 357.391 239.691 362.156 241.877 C 366.139 243.704, 367.025 244.616, 367.554 247.434 C 367.975 249.680, 367.615 252.010, 366.474 254.414 C 365.425 256.624, 363.819 258.258, 362.327 258.633 C 360.987 258.969, 358.376 258.998, 356.524 258.698 C 354.077 258.301, 352.998 258.563, 352.578 259.657 C 352.260 260.486, 352 262.027, 352 263.082 L 352 265 357.250 265.010 C 360.692 265.016, 364.222 265.838, 367.500 267.397 C 370.250 268.704, 374.633 271.317, 377.239 273.204 C 379.846 275.090, 387.423 281.554, 394.078 287.567 C 400.733 293.580, 408.164 300.823, 410.590 303.661 C 413.156 306.662, 417.178 309.906, 420.198 311.411 C 423.055 312.835, 427.064 314, 429.107 314 C 432.028 314, 433.376 313.342, 435.411 310.923 C 436.835 309.231, 438.262 306.804, 438.582 305.531 C 438.901 304.257, 438.493 301.929, 437.675 300.358 C 436.857 298.786, 433.558 294.947, 430.344 291.827 C 427.130 288.706, 420 282.659, 414.500 278.388 C 409 274.118, 400.675 267.708, 396 264.145 C 391.325 260.581, 386.009 256.279, 384.186 254.583 C 382.363 252.887, 379.609 249.250, 378.066 246.500 C 376.523 243.750, 374.011 238.125, 372.484 234 C 370.956 229.875, 368.159 224.363, 366.268 221.750 C 364.377 219.137, 362.629 217, 362.383 217 C 362.138 217, 361.752 217.563, 361.526 218.250 M 420.041 248.135 L 403.600 267.269 406.550 269.630 C 408.173 270.928, 409.797 271.992, 410.161 271.995 C 410.524 271.998, 418.336 263.591, 427.520 253.313 L 444.219 234.627 440.859 231.840 C 439.012 230.308, 437.271 229.042, 436.991 229.027 C 436.711 229.012, 429.084 237.611, 420.041 248.135 M 351.073 244.635 C 349.933 246.084, 349 248.566, 349 250.150 C 349 252.325, 349.794 253.514, 352.250 255.011 C 354.038 256.101, 357.195 256.994, 359.266 256.996 L 363.032 257 364.651 253.606 C 365.602 251.612, 366.012 249.185, 365.646 247.725 C 365.267 246.215, 363.681 244.602, 361.610 243.619 C 359.733 242.729, 357.061 242, 355.671 242 C 354.133 242, 352.334 243.031, 351.073 244.635 M 354 245.815 C 354 246.263, 355.590 247.388, 357.534 248.315 C 359.478 249.242, 361.278 250, 361.534 250 C 361.790 250, 362 249.633, 362 249.185 C 362 248.737, 360.410 247.612, 358.466 246.685 C 356.522 245.758, 354.722 245, 354.466 245 C 354.210 245, 354 245.367, 354 245.815 M 352 249.815 C 352 250.263, 353.590 251.388, 355.534 252.315 C 357.478 253.242, 359.278 254, 359.534 254 C 359.790 254, 360 253.633, 360 253.185 C 360 252.737, 358.410 251.612, 356.466 250.685 C 354.522 249.758, 352.722 249, 352.466 249 C 352.210 249, 352 249.367, 352 249.815 M 385.636 288.020 C 384.186 289.744, 383 291.484, 383 291.889 C 383 292.293, 384.301 293.586, 385.891 294.761 L 388.782 296.899 390.186 295.199 C 390.958 294.265, 392.123 292.789, 392.776 291.920 C 393.749 290.625, 393.449 289.846, 391.118 287.613 L 388.273 284.887 385.636 288.020 M 368.186 287.864 C 367.247 288.459, 370.735 292.028, 380.388 300.349 C 387.823 306.757, 394.152 312, 394.453 312 C 394.754 312, 395 310.443, 395 308.540 C 395 306.054, 394.229 304.366, 392.260 302.540 C 390.753 301.143, 389.205 300, 388.819 300 C 388.434 300, 387.835 300.457, 387.490 301.016 C 387.144 301.575, 386.421 301.760, 385.882 301.427 C 385.257 301.041, 385.295 300.349, 385.989 299.513 C 386.811 298.522, 386.426 297.694, 384.403 296.102 C 382.933 294.946, 381.368 294, 380.924 294 C 380.481 294, 379.835 294.457, 379.490 295.016 C 379.144 295.575, 378.421 295.760, 377.882 295.427 C 377.268 295.048, 377.350 294.284, 378.100 293.380 C 379.054 292.230, 378.912 291.633, 377.398 290.435 C 376.354 289.608, 374.458 288.497, 373.185 287.966 C 371.912 287.435, 370.562 287.007, 370.185 287.015 C 369.808 287.024, 368.909 287.406, 368.186 287.864 M 361.393 290.582 C 361.727 291.452, 362 292.512, 362 292.937 C 362 293.363, 368.102 298.747, 375.559 304.903 C 383.017 311.058, 390.217 316.512, 391.559 317.023 C 393.570 317.787, 393.987 317.647, 393.928 316.225 C 393.888 315.276, 387.168 308.762, 378.995 301.750 C 370.822 294.738, 363.381 289, 362.460 289 C 361.344 289, 360.988 289.528, 361.393 290.582 M 355.804 312.250 C 351.742 316.788, 345.357 323.973, 341.616 328.218 C 337.874 332.463, 334.984 336.452, 335.194 337.082 C 335.404 337.712, 341.883 331.089, 349.593 322.364 C 357.302 313.639, 363.949 305.938, 364.364 305.250 C 364.779 304.563, 364.684 304, 364.153 304 C 363.622 304, 359.865 307.712, 355.804 312.250 M 356.124 326.069 C 348.356 334.888, 342 342.530, 342 343.051 C 342 343.573, 342.337 343.967, 342.750 343.926 C 343.163 343.885, 346.650 340.211, 350.500 335.762 C 354.350 331.314, 360.769 323.953, 364.765 319.405 C 368.761 314.858, 371.629 310.889, 371.139 310.586 C 370.649 310.283, 363.892 317.251, 356.124 326.069 M 364.084 332.045 C 356.338 340.877, 350 348.531, 350 349.052 C 350 349.573, 350.337 349.970, 350.750 349.933 C 351.163 349.897, 355.861 344.834, 361.191 338.683 C 366.521 332.533, 372.941 325.169, 375.458 322.319 C 377.974 319.470, 379.614 316.879, 379.101 316.562 C 378.587 316.245, 371.830 323.212, 364.084 332.045 M 327.975 344.565 C 327.439 345.976, 327 348.023, 327 349.115 C 327 350.206, 327.694 352.442, 328.543 354.082 C 329.391 355.723, 330.480 356.822, 330.962 356.524 C 331.443 356.226, 331.152 354.608, 330.314 352.928 C 329.476 351.249, 329.005 348.890, 329.267 347.687 C 329.529 346.484, 330.074 344.712, 330.478 343.750 C 330.928 342.681, 330.774 342, 330.082 342 C 329.460 342, 328.512 343.154, 327.975 344.565 M 214.321 435.394 C 214.695 436.367, 215 437.523, 215 437.963 C 215 438.403, 216.507 439.912, 218.349 441.317 L 221.698 443.872 221.239 441.471 C 220.987 440.150, 219.174 437.845, 217.211 436.348 C 214.500 434.280, 213.805 434.051, 214.321 435.394" stroke="none" fill="#666058" fill-rule="evenodd"/><path d="M 414.343 325.918 C 411.129 327.439, 407.984 329.317, 407.353 330.092 C 406.723 330.866, 405.629 333.444, 404.924 335.820 L 403.642 340.140 401.571 339.531 C 400.432 339.196, 398.107 338.667, 396.405 338.355 C 394.450 337.997, 392.091 338.419, 390.001 339.500 C 388.181 340.441, 384.894 342.513, 382.696 344.105 C 380.498 345.697, 378.049 347, 377.253 347 C 376.457 347, 372.200 348.876, 367.793 351.169 C 361.939 354.214, 358.731 356.664, 355.890 360.259 C 353.750 362.965, 351.993 365.477, 351.985 365.840 C 351.976 366.203, 351.620 367.050, 351.193 367.721 C 350.604 368.649, 348.660 368.348, 343.113 366.471 C 339.095 365.112, 334.562 364, 333.039 364 C 331.515 364, 327.027 365.622, 323.066 367.604 C 318.057 370.109, 314.970 372.440, 312.931 375.254 C 311.319 377.479, 310 379.842, 310 380.503 C 310 381.331, 308.517 381.576, 305.250 381.288 L 300.500 380.869 288.434 386.821 C 281.126 390.426, 275.348 393.986, 273.782 395.847 C 272.359 397.538, 270.438 400.904, 269.513 403.327 L 267.830 407.734 260.245 405.325 C 255.217 403.728, 251.621 403.135, 249.580 403.566 C 247.886 403.924, 243.459 405.801, 239.743 407.736 C 235.364 410.016, 231.942 412.674, 230.023 415.284 C 228.393 417.499, 225.905 422.781, 224.493 427.022 C 223.081 431.262, 221.837 436.704, 221.728 439.116 C 221.620 441.527, 221.901 445.413, 222.354 447.750 C 223.016 451.176, 222.894 452, 221.724 452 C 220.751 452, 218.234 446.319, 214.083 434.750 C 210.679 425.262, 207.180 415.826, 206.308 413.780 C 205.436 411.733, 203.998 409.429, 203.111 408.658 C 202.225 407.887, 199.196 406.508, 196.381 405.592 L 191.261 403.926 185.917 406.033 C 182.978 407.191, 179.357 408.858, 177.870 409.736 C 176.081 410.793, 174.757 412.798, 173.953 415.666 C 173.286 418.050, 172.290 420, 171.739 420 C 171.162 420, 170.969 421.420, 171.282 423.352 C 171.581 425.196, 173.692 432.058, 175.973 438.602 C 178.254 445.146, 181.699 454.550, 183.628 459.500 C 185.558 464.450, 187.893 470.296, 188.818 472.492 C 189.743 474.687, 192.348 480.322, 194.606 485.014 L 198.711 493.544 204.381 495.331 C 207.581 496.340, 211.021 496.824, 212.276 496.443 C 213.499 496.071, 222.236 491.905, 231.691 487.186 C 244.131 480.976, 249.025 478.035, 249.400 476.543 L 249.917 474.482 255.709 474.393 C 260.292 474.322, 263.064 473.520, 269 470.547 C 273.125 468.481, 277.657 465.706, 279.072 464.379 L 281.644 461.967 282.985 464.473 C 283.843 466.075, 286.275 467.707, 289.729 469 C 292.700 470.111, 297.018 471.444, 299.326 471.961 C 301.633 472.478, 305.091 472.669, 307.010 472.386 C 308.930 472.103, 313.221 470.616, 316.547 469.083 C 319.873 467.549, 324.287 464.809, 326.356 462.992 C 328.425 461.176, 330.934 458.072, 331.932 456.095 C 332.930 454.118, 334.478 449.956, 335.373 446.846 C 336.268 443.736, 337 440.041, 337 438.635 L 337 436.077 341.250 434.958 C 343.587 434.343, 347.975 432.708, 351 431.324 C 354.025 429.941, 359.730 427.213, 363.678 425.261 C 368.420 422.916, 371.035 420.998, 371.384 419.606 L 371.912 417.500 376.812 417.837 C 380.767 418.109, 382.947 417.551, 388.106 414.947 C 391.623 413.172, 395.877 410.670, 397.559 409.387 L 400.618 407.054 401.811 410.355 C 402.468 412.171, 404.081 414.667, 405.395 415.901 C 406.709 417.136, 411.074 419.189, 415.094 420.464 L 422.402 422.781 427.675 420.195 L 432.949 417.609 434.996 411.554 C 436.121 408.224, 437.522 401.225, 438.107 396 C 438.727 390.472, 438.973 376.048, 438.696 361.500 L 438.221 336.500 435.587 331.860 C 434.138 329.309, 432.176 326.977, 431.226 326.680 C 430.277 326.382, 427.404 325.466, 424.843 324.645 L 420.186 323.152 414.343 325.918 M 416.590 337.196 L 413.942 339.500 414.911 352.977 C 415.444 360.389, 415.631 366.689, 415.328 366.977 C 415.024 367.264, 410.850 363.337, 406.053 358.250 C 401.255 353.163, 396.693 349.012, 395.915 349.027 C 395.137 349.042, 392.938 350.349, 391.030 351.931 L 387.559 354.808 388.943 357.393 C 389.704 358.815, 393.516 363.031, 397.413 366.763 C 401.311 370.494, 406.874 375.561, 409.776 378.023 C 413.250 380.972, 415.119 383.354, 415.250 385 C 415.359 386.375, 415.109 390.543, 414.695 394.261 C 414.281 397.980, 413.533 402.098, 413.033 403.413 C 412.346 405.220, 412.537 406.176, 413.814 407.332 C 414.743 408.173, 416.628 409.261, 418.002 409.749 C 419.376 410.238, 421.262 410.467, 422.193 410.257 C 423.124 410.047, 424.327 408.441, 424.866 406.688 C 425.405 404.934, 426.163 400.350, 426.551 396.500 C 426.938 392.650, 427.182 378.672, 427.092 365.437 C 427.001 352.203, 426.576 340.053, 426.148 338.437 C 425.528 336.104, 424.738 335.437, 422.303 335.196 C 420.219 334.989, 418.391 335.629, 416.590 337.196 M 372.236 361.038 C 369.340 362.698, 365.574 365.957, 363.866 368.278 C 362.159 370.600, 360.080 374.075, 359.248 376 C 358.416 377.925, 357.713 382.200, 357.685 385.500 C 357.653 389.397, 358.266 392.727, 359.435 395 C 360.424 396.925, 362.194 399.555, 363.367 400.845 C 364.540 402.135, 366.715 403.822, 368.200 404.595 C 369.686 405.368, 372.962 406, 375.482 406 C 378.002 406, 381.512 405.393, 383.282 404.652 C 385.052 403.910, 387.927 402.100, 389.670 400.630 C 391.414 399.160, 394.226 395.864, 395.920 393.307 C 397.736 390.565, 399 387.355, 399 385.484 C 399 383.679, 398.211 381.596, 397.171 380.655 C 396.165 379.745, 394.408 379, 393.267 379 C 391.802 379, 390.306 380.567, 388.185 384.326 C 386.532 387.256, 383.982 390.437, 382.519 391.395 C 381.057 392.354, 378.468 393.177, 376.766 393.226 C 374.684 393.285, 373.072 392.572, 371.836 391.046 C 370.700 389.642, 370 387.162, 370 384.537 C 370 381.772, 370.783 379.160, 372.250 377.033 C 373.659 374.989, 376.467 372.948, 379.762 371.573 C 382.656 370.365, 385.446 368.954, 385.963 368.437 C 386.531 367.869, 386.555 365.961, 386.023 363.603 C 385.540 361.460, 384.550 359.330, 383.822 358.869 C 383.095 358.408, 381.375 358.028, 380 358.025 C 378.625 358.021, 375.131 359.377, 372.236 361.038 M 331.264 375.963 C 329.484 376.392, 326.492 377.913, 324.616 379.344 C 322.740 380.775, 320.259 383.900, 319.102 386.289 C 317.946 388.677, 317 392.462, 317 394.699 C 317 398.072, 317.384 398.870, 319.250 399.370 C 320.488 399.701, 322.216 399.979, 323.092 399.986 C 324.074 399.995, 325.120 398.542, 325.825 396.190 C 326.453 394.095, 327.986 391.446, 329.233 390.305 C 330.480 389.164, 332.474 387.935, 333.665 387.575 C 335.249 387.095, 336.255 387.526, 337.415 389.182 C 338.287 390.427, 339 391.774, 339 392.176 C 339 392.577, 337.443 393.645, 335.540 394.548 C 333.637 395.451, 330.293 398.128, 328.109 400.497 C 325.925 402.866, 323.606 406.584, 322.954 408.759 L 321.770 412.712 323.555 416.474 C 324.537 418.543, 326.726 421.102, 328.420 422.161 C 330.597 423.521, 332.673 423.952, 335.500 423.631 C 337.700 423.381, 340.775 422.853, 342.333 422.456 C 343.892 422.059, 346.592 420.428, 348.333 418.829 C 350.524 416.820, 352.169 416.090, 353.671 416.461 C 354.864 416.757, 357.224 416.211, 358.914 415.249 C 360.604 414.287, 361.989 413.050, 361.990 412.500 C 361.991 411.950, 361.094 410.027, 359.996 408.226 C 358.898 406.425, 358 404.291, 358 403.485 C 358 402.678, 356.564 398.751, 354.809 394.759 C 353.054 390.766, 350.333 385.588, 348.762 383.251 C 347.191 380.915, 344.689 378.381, 343.203 377.622 C 341.716 376.862, 339.150 376.003, 337.500 375.713 C 335.850 375.423, 333.044 375.535, 331.264 375.963 M 301.798 392.695 C 300.254 392.940, 298.832 393.954, 298.480 395.062 C 298.091 396.289, 296.961 397, 295.400 397 C 294.045 397, 291.269 397.696, 289.232 398.548 C 287.194 399.399, 284.465 401.086, 283.166 402.298 C 281.868 403.509, 279.847 406.300, 278.676 408.500 C 277.057 411.540, 276.541 414.299, 276.523 420 C 276.504 426.171, 276.943 428.291, 279 431.961 C 280.375 434.415, 282.952 437.400, 284.726 438.596 C 286.500 439.791, 289.531 441.065, 291.461 441.427 C 293.391 441.789, 296.803 441.592, 299.042 440.989 C 301.281 440.386, 304.922 438.258, 307.133 436.261 C 310.387 433.321, 311.326 432.903, 312.061 434.065 C 312.561 434.854, 313.030 436.400, 313.103 437.500 C 313.177 438.600, 313.166 440.175, 313.079 441 C 312.992 441.825, 312.423 443.492, 311.815 444.705 C 311.208 445.917, 309.270 447.593, 307.509 448.429 C 305.236 449.508, 303.432 449.698, 301.293 449.084 C 299.635 448.609, 297.377 447.737, 296.275 447.147 L 294.270 446.074 292.538 449.915 C 291.586 452.028, 290.968 454.595, 291.165 455.620 C 291.363 456.646, 292.869 458.163, 294.512 458.992 C 296.162 459.825, 299.963 460.472, 303 460.438 C 306.549 460.397, 309.943 459.625, 312.568 458.260 C 314.806 457.097, 318.268 454.339, 320.262 452.132 C 322.339 449.832, 324.180 446.558, 324.573 444.461 C 324.951 442.449, 325.012 438.485, 324.710 435.652 C 324.408 432.818, 322.924 427.800, 321.413 424.500 C 319.902 421.200, 318.290 418.350, 317.832 418.167 C 317.375 417.983, 317 417.242, 317 416.518 C 317 415.795, 315.030 410.095, 312.622 403.852 C 309.279 395.182, 307.802 392.472, 306.372 392.383 C 305.342 392.318, 303.284 392.459, 301.798 392.695 M 339.029 404.632 C 336.501 406.990, 334.923 409.283, 335.138 410.286 L 335.500 411.973 340.750 409.533 C 343.637 408.190, 346 406.482, 346 405.737 C 346 404.992, 345.388 403.546, 344.641 402.524 L 343.282 400.665 339.029 404.632 M 293.217 409.561 C 291.991 410.419, 290.269 412.514, 289.389 414.215 C 288.371 416.184, 287.992 418.565, 288.349 420.761 C 288.657 422.659, 289.615 425.289, 290.477 426.606 C 291.389 427.997, 293.022 429, 294.375 429 C 295.656 429, 298.227 427.974, 300.089 426.719 C 301.950 425.465, 303.908 423.204, 304.438 421.696 C 305.101 419.811, 305.009 417.483, 304.145 414.251 C 303.453 411.664, 302.350 409.207, 301.693 408.789 C 301.037 408.372, 299.363 408.024, 297.973 408.015 C 296.582 408.007, 294.442 408.702, 293.217 409.561 M 187.649 417.247 L 182.798 419.333 183.374 422.916 C 183.690 424.887, 186.847 434.375, 190.389 444 C 193.930 453.625, 198.679 465.775, 200.942 471 C 203.204 476.225, 205.504 481.558, 206.053 482.852 C 206.873 484.787, 207.533 485.087, 209.775 484.543 C 211.274 484.179, 218.912 480.764, 226.750 476.953 L 241 470.024 241 467.147 C 241 465.565, 240.067 463.084, 238.927 461.635 C 237.655 460.017, 235.869 459, 234.301 459 C 232.896 459, 228.485 460.800, 224.500 463 C 220.515 465.200, 216.809 467, 216.266 467 C 215.723 467, 213.692 463.512, 211.753 459.250 C 209.814 454.988, 205.655 444.300, 202.511 435.500 C 199.367 426.700, 196.155 418.488, 195.374 417.250 C 194.593 416.012, 193.627 415.036, 193.227 415.081 C 192.827 415.125, 190.317 416.100, 187.649 417.247 M 244.344 417.510 C 242.058 418.880, 238.804 422.091, 237.112 424.645 C 235.421 427.198, 233.745 430.842, 233.388 432.743 C 233.032 434.643, 232.984 438.890, 233.283 442.181 C 233.703 446.816, 234.632 449.378, 237.408 453.559 C 239.658 456.948, 242.465 459.707, 244.955 460.977 C 247.531 462.291, 250.873 463, 254.493 463 C 258.408 463, 261.489 462.279, 264.847 460.578 C 267.476 459.245, 271.306 456.297, 273.358 454.025 C 275.410 451.754, 277.519 448.765, 278.045 447.383 C 278.570 446.001, 279 444.082, 279 443.119 C 279 442.126, 277.317 440.423, 275.114 439.184 C 272.976 437.983, 270.935 437, 270.578 437 C 270.221 437, 269.090 438.957, 268.065 441.348 C 267.040 443.740, 264.985 446.653, 263.499 447.822 C 262.013 448.991, 259.271 450.234, 257.405 450.584 C 255.540 450.934, 252.885 450.937, 251.507 450.591 C 250.128 450.245, 249.002 449.408, 249.004 448.731 C 249.007 448.054, 252.323 445.799, 256.373 443.720 C 260.423 441.640, 265.413 438.490, 267.461 436.720 L 271.185 433.500 270.477 429.726 C 270.087 427.650, 268.797 424.511, 267.610 422.750 C 266.424 420.989, 263.934 418.524, 262.078 417.274 C 259.656 415.642, 257.265 415.003, 253.602 415.009 C 249.956 415.016, 247.314 415.730, 244.344 417.510 M 248.707 427.016 C 247.298 428.124, 245.629 430.596, 244.998 432.508 C 244.367 434.419, 243.996 436.614, 244.175 437.384 C 244.414 438.413, 246.419 437.686, 251.739 434.642 C 255.720 432.364, 258.983 429.963, 258.989 429.307 C 258.995 428.650, 258 427.413, 256.777 426.557 C 255.555 425.701, 253.816 425, 252.912 425 C 252.009 425, 250.117 425.907, 248.707 427.016" stroke="none" fill="#d12522" fill-rule="evenodd"/><path d="M 129 34.057 C 124.875 34.570, 118.063 35.858, 113.861 36.919 C 109.660 37.980, 103.135 40.064, 99.361 41.552 C 95.588 43.039, 88.967 46.336, 84.650 48.878 C 80.332 51.420, 73.225 56.360, 68.856 59.856 C 64.486 63.352, 58.151 69.419, 54.777 73.340 C 51.402 77.260, 45.360 85.522, 41.349 91.700 C 37.338 97.878, 32.307 106.435, 30.169 110.716 C 28.031 114.997, 25.359 121.200, 24.231 124.500 C 23.103 127.800, 21.486 133.200, 20.639 136.500 C 19.791 139.800, 18.603 145.620, 18 149.434 C 17.396 153.248, 16.469 162.439, 15.939 169.858 C 15.305 178.729, 15.321 187.610, 15.985 195.795 C 16.541 202.640, 18.154 213.475, 19.569 219.871 C 20.984 226.267, 24.090 237.384, 26.473 244.575 C 28.855 251.766, 33.052 262.688, 35.799 268.845 C 38.546 275.001, 44.022 285.560, 47.967 292.307 C 51.911 299.055, 58.495 309.059, 62.597 314.538 C 66.699 320.017, 77.580 332.788, 86.777 342.918 C 95.975 353.048, 109.350 366.728, 116.500 373.318 C 123.650 379.908, 135.125 390.070, 142 395.901 C 148.875 401.732, 158.390 409.540, 163.144 413.251 C 167.898 416.963, 172.002 420, 172.264 420 C 172.526 420, 173.307 417.975, 174 415.500 C 174.693 413.025, 175.689 411, 176.213 411 C 176.738 411, 177.017 410.565, 176.833 410.033 C 176.650 409.501, 168.175 402.272, 158 393.969 C 147.825 385.666, 133.352 373.270, 125.839 366.422 C 118.325 359.574, 107.490 348.915, 101.762 342.736 C 96.033 336.556, 88.003 327.450, 83.917 322.500 C 79.832 317.550, 73.747 309.675, 70.396 305 C 67.045 300.325, 61.972 292.527, 59.123 287.671 C 56.274 282.815, 52.212 275.390, 50.096 271.171 C 47.980 266.952, 44.128 258.127, 41.535 251.559 C 38.943 244.992, 35.323 233.666, 33.490 226.390 C 31.658 219.115, 29.448 207.684, 28.579 200.989 C 27.711 194.294, 27 182.617, 27 175.039 C 27 167.093, 27.655 157.505, 28.548 152.385 C 29.399 147.503, 31.408 139.594, 33.011 134.808 C 34.614 130.023, 37.968 122.041, 40.464 117.071 C 42.960 112.101, 46.561 105.598, 48.466 102.621 C 50.371 99.643, 54.592 93.897, 57.847 89.853 C 61.101 85.809, 66.405 80.212, 69.632 77.416 C 72.859 74.620, 78.249 70.316, 81.609 67.851 C 84.969 65.386, 91.269 61.533, 95.609 59.287 C 99.949 57.042, 107.111 54.073, 111.524 52.690 C 115.937 51.307, 123.324 49.623, 127.941 48.948 C 133.066 48.199, 140.843 47.944, 147.917 48.295 C 154.505 48.621, 162.881 49.752, 167.341 50.917 C 171.653 52.043, 179.373 54.803, 184.496 57.050 C 189.619 59.297, 197.880 63.467, 202.854 66.317 C 207.827 69.168, 215.615 74.200, 220.159 77.500 C 224.704 80.800, 233.660 88.675, 240.062 95 C 246.463 101.325, 252.923 108.033, 254.418 109.906 L 257.134 113.313 261.716 107.906 C 264.236 104.933, 270.169 98.733, 274.899 94.130 C 279.630 89.526, 287.936 82.445, 293.358 78.393 C 298.779 74.342, 307.178 68.759, 312.021 65.988 C 316.864 63.216, 325.524 58.981, 331.265 56.576 C 337.006 54.170, 345.257 51.369, 349.601 50.351 C 355.505 48.968, 361.289 48.511, 372.500 48.543 C 384.551 48.578, 389.269 49.025, 396.500 50.816 C 401.653 52.093, 410.202 55.361, 416.500 58.462 C 422.550 61.442, 431.383 66.820, 436.128 70.415 C 440.874 74.009, 447.967 80.389, 451.892 84.591 C 455.816 88.793, 461.448 95.892, 464.406 100.366 C 467.364 104.840, 471.581 112.100, 473.777 116.500 C 475.972 120.900, 479.154 128.426, 480.848 133.225 C 482.541 138.024, 484.708 145.899, 485.663 150.725 C 486.894 156.941, 487.386 164.167, 487.351 175.500 C 487.322 184.987, 486.607 196.342, 485.596 203.394 C 484.658 209.936, 482.574 220.394, 480.965 226.635 C 479.356 232.876, 476.422 242.373, 474.446 247.741 C 472.469 253.108, 467.769 263.800, 464.001 271.500 C 460.233 279.200, 453.546 290.900, 449.143 297.500 C 444.739 304.100, 438.211 313.100, 434.637 317.500 L 428.138 325.500 430.840 326.660 C 432.327 327.298, 434.325 329.459, 435.281 331.463 C 436.237 333.467, 437.444 334.844, 437.963 334.523 C 438.483 334.202, 442.613 329.340, 447.142 323.719 C 451.670 318.099, 458.853 308.190, 463.104 301.699 C 467.356 295.209, 473.523 284.409, 476.810 277.699 C 480.097 270.990, 484.447 261.246, 486.477 256.046 C 488.506 250.846, 491.717 240.946, 493.613 234.046 C 495.508 227.146, 497.994 216.325, 499.137 210 L 501.216 198.500 500.722 178.500 C 500.380 164.655, 499.596 154.960, 498.173 146.998 C 497.043 140.672, 494.703 131.447, 492.973 126.498 C 491.243 121.549, 487.873 113.796, 485.484 109.269 C 483.095 104.743, 477.655 95.743, 473.394 89.269 C 468.327 81.571, 462.508 74.380, 456.573 68.480 C 451.583 63.519, 443.622 56.880, 438.883 53.726 C 434.144 50.573, 426.900 46.437, 422.784 44.536 C 418.668 42.634, 411.470 39.968, 406.788 38.612 C 402.107 37.255, 394.806 35.662, 390.566 35.072 C 386.325 34.483, 378.447 34, 373.059 34 C 367.670 34, 359.266 34.696, 354.381 35.546 C 349.496 36.396, 340.854 38.645, 335.175 40.543 C 329.496 42.442, 320.046 46.467, 314.175 49.489 C 308.304 52.510, 299.396 58.024, 294.380 61.741 C 289.363 65.458, 281.105 72.100, 276.028 76.500 C 270.951 80.900, 264.810 86.241, 262.380 88.370 L 257.963 92.240 249.722 84.370 C 245.190 80.041, 237.210 73.066, 231.991 68.869 C 226.771 64.671, 219.350 59.123, 215.500 56.539 C 211.650 53.954, 204 49.669, 198.500 47.016 C 193 44.362, 184.675 40.994, 180 39.531 C 175.325 38.068, 168.475 36.234, 164.777 35.455 C 161.079 34.676, 153.204 33.833, 147.277 33.582 C 141.350 33.330, 133.125 33.544, 129 34.057 M 124.849 52.564 C 120.641 53.326, 113.516 55.292, 109.016 56.935 C 104.515 58.577, 98.002 61.504, 94.543 63.439 C 91.083 65.374, 84.228 70.067, 79.310 73.868 C 74.392 77.669, 67.764 83.641, 64.582 87.139 C 61.399 90.638, 56.869 96.200, 54.515 99.500 C 52.161 102.800, 48.145 109.384, 45.591 114.131 C 43.037 118.878, 39.569 126.528, 37.886 131.131 C 36.202 135.734, 33.932 142.875, 32.840 147 C 31.485 152.120, 30.679 159.277, 30.300 169.557 C 29.963 178.692, 30.219 188.721, 30.952 195.057 C 31.617 200.801, 33.031 209.775, 34.095 215 C 35.159 220.225, 37.415 229, 39.107 234.500 C 40.800 240, 44.199 249.450, 46.659 255.500 C 49.120 261.550, 53.414 270.775, 56.202 276 C 58.991 281.225, 64.551 290.450, 68.560 296.501 C 72.568 302.551, 80.660 313.351, 86.542 320.501 C 92.423 327.650, 105.170 341.389, 114.868 351.031 C 124.566 360.672, 141.050 375.667, 151.500 384.351 C 161.950 393.035, 172.802 401.916, 175.615 404.088 L 180.730 408.035 186.115 405.984 L 191.500 403.933 196.951 405.795 C 199.994 406.835, 203.213 408.744, 204.238 410.116 C 205.247 411.469, 207.634 417.058, 209.541 422.538 C 212.300 430.462, 213.759 433.165, 216.671 435.750 C 218.685 437.538, 220.708 439, 221.167 439 C 221.625 439, 222 437.908, 222 436.572 C 222 435.237, 223.249 430.614, 224.777 426.299 C 226.304 421.983, 228.797 416.822, 230.317 414.829 C 231.916 412.732, 235.908 409.733, 239.790 407.711 C 243.481 405.789, 247.886 403.924, 249.580 403.566 C 251.621 403.135, 255.217 403.728, 260.245 405.325 L 267.830 407.734 269.513 403.327 C 270.438 400.904, 272.359 397.538, 273.782 395.847 C 275.348 393.986, 281.126 390.426, 288.434 386.821 L 300.500 380.869 305.250 381.288 C 308.517 381.576, 310 381.331, 310 380.503 C 310 379.842, 311.290 377.519, 312.867 375.342 C 314.555 373.012, 318.034 370.180, 321.328 368.456 L 326.921 365.527 324.514 363.014 C 323.189 361.631, 321.407 358.827, 320.553 356.782 C 319.699 354.737, 319 351.279, 319 349.097 C 319 346.915, 319.439 343.976, 319.976 342.564 C 320.512 341.153, 329.741 329.668, 340.485 317.043 L 360.019 294.087 359.760 290.893 L 359.500 287.700 365 286.397 C 368.926 285.467, 371.407 285.381, 373.670 286.098 C 375.414 286.650, 377.381 287.754, 378.042 288.551 C 378.704 289.348, 379.780 290, 380.434 290 C 381.089 290, 382.685 288.564, 383.983 286.810 L 386.341 283.620 380.921 278.818 C 377.939 276.177, 372.509 272.438, 368.854 270.508 L 362.208 267 348.854 266.985 C 341.509 266.976, 334.949 266.620, 334.277 266.192 C 333.314 265.580, 333.321 264.360, 334.312 260.457 L 335.572 255.500 329.239 249.619 C 325.756 246.384, 322.028 242.014, 320.953 239.908 C 319.879 237.803, 319 234.487, 319 232.540 C 319 230.593, 319.346 229, 319.769 229 C 320.192 229, 323.809 230.375, 327.808 232.055 C 331.806 233.735, 336.908 235.182, 339.144 235.271 C 342.118 235.390, 343.584 234.921, 344.605 233.526 C 345.372 232.476, 346 229.959, 346 227.931 C 346 225.904, 345.400 223.747, 344.666 223.138 C 343.933 222.529, 339.805 221.227, 335.492 220.244 C 331.180 219.261, 327.481 217.944, 327.272 217.317 C 327.064 216.691, 327.905 215.235, 329.143 214.082 C 330.380 212.929, 332.992 211.541, 334.946 210.998 C 336.901 210.455, 341.425 210.011, 345 210.011 C 348.575 210.011, 353.094 210.454, 355.041 210.995 C 356.989 211.536, 360.096 213.095, 361.946 214.460 C 363.796 215.825, 366.762 218.984, 368.536 221.480 C 370.311 223.977, 372.791 228.827, 374.047 232.260 C 375.303 235.692, 377.356 240.573, 378.610 243.107 C 379.863 245.642, 382.103 249.157, 383.587 250.921 C 385.070 252.684, 389.805 256.807, 394.109 260.083 L 401.933 266.039 418.662 246.533 C 430.645 232.562, 435.987 225.534, 437.491 221.764 C 439.183 217.522, 440.649 215.778, 445.045 212.781 C 448.045 210.735, 450.950 209.049, 451.500 209.033 C 452.050 209.018, 454.395 210.692, 456.711 212.753 L 460.922 216.500 458.344 222.779 C 456.243 227.895, 454.809 229.748, 450.605 232.779 C 447.768 234.826, 441.404 241, 436.463 246.500 C 431.523 252, 423.965 260.413, 419.668 265.195 L 411.855 273.889 418.172 278.695 C 421.647 281.338, 427.351 286.200, 430.848 289.500 C 434.345 292.800, 438.068 297.188, 439.123 299.250 C 440.178 301.313, 441.210 303, 441.418 303 C 441.625 303, 444.473 298.837, 447.746 293.750 C 451.019 288.663, 455.748 280.675, 458.255 276 C 460.762 271.325, 464.603 263.225, 466.790 258 C 468.977 252.775, 471.927 245.101, 473.344 240.947 C 474.761 236.793, 477.040 228.918, 478.408 223.447 C 479.776 217.976, 481.649 208.550, 482.569 202.500 C 483.585 195.827, 484.259 185.206, 484.283 175.500 C 484.311 163.916, 483.843 157.292, 482.585 151.500 C 481.629 147.100, 479.734 140.125, 478.373 136 C 477.012 131.875, 473.926 124.421, 471.517 119.435 C 469.107 114.449, 464.751 106.799, 461.838 102.435 C 458.924 98.071, 452.958 90.763, 448.580 86.195 C 444.202 81.628, 437.361 75.438, 433.379 72.441 C 429.396 69.444, 422.793 65.188, 418.706 62.983 C 414.618 60.778, 407.950 57.840, 403.887 56.455 C 399.824 55.069, 392.729 53.275, 388.119 52.468 C 383.509 51.660, 376.256 51, 372 51 C 367.744 51, 360.418 51.670, 355.719 52.490 C 351.020 53.309, 343.874 55.157, 339.838 56.596 C 335.802 58.034, 326.875 62.092, 320 65.612 C 313.125 69.132, 302.775 75.537, 297 79.845 C 291.225 84.154, 283.157 90.788, 279.072 94.589 C 274.986 98.390, 268.395 105.398, 264.426 110.163 L 257.208 118.826 252.205 112.663 C 249.453 109.273, 242.544 101.987, 236.851 96.470 C 231.158 90.954, 223.716 84.311, 220.312 81.710 C 216.909 79.108, 210.384 74.655, 205.812 71.813 C 201.241 68.972, 193.450 64.764, 188.500 62.462 C 183.550 60.160, 176.697 57.318, 173.272 56.147 C 169.846 54.976, 163.150 53.339, 158.391 52.509 C 153.632 51.679, 145.859 51.040, 141.119 51.090 C 136.379 51.139, 129.057 51.803, 124.849 52.564 M 446.623 214.126 C 443.107 216.314, 441.297 218.334, 439.782 221.761 L 437.721 226.420 441.527 229.710 C 443.620 231.519, 445.641 233, 446.017 233 C 446.392 233, 448.455 231.727, 450.600 230.171 C 453.396 228.142, 455.020 225.889, 456.335 222.213 C 457.345 219.392, 457.893 216.637, 457.555 216.089 C 457.216 215.541, 455.694 214.206, 454.171 213.122 L 451.403 211.151 446.623 214.126 M 333.750 213.658 C 331.688 214.514, 330 215.607, 330 216.088 C 330 216.569, 331.238 217.235, 332.750 217.568 C 334.262 217.902, 337.852 218.820, 340.726 219.608 C 343.775 220.445, 346.379 221.839, 346.976 222.955 C 347.539 224.008, 348 226.219, 348 227.869 C 348 229.520, 347.545 232.068, 346.988 233.532 C 346.431 234.996, 345.107 236.421, 344.045 236.698 C 342.897 236.999, 341.888 238.379, 341.557 240.102 C 341.251 241.696, 340.738 244.354, 340.419 246.009 C 340.099 247.664, 339.483 248.798, 339.049 248.530 C 338.615 248.262, 338.632 246.121, 339.087 243.772 C 339.541 241.422, 339.932 238.999, 339.956 238.386 C 339.980 237.773, 337.978 236.995, 335.506 236.656 C 333.035 236.317, 328.760 234.898, 326.006 233.503 L 321 230.966 321 233.015 C 321 234.142, 321.613 236.532, 322.363 238.326 C 323.112 240.120, 326.954 244.534, 330.899 248.134 L 338.072 254.681 337.036 257.406 C 336.466 258.904, 336 261.168, 336 262.436 L 336 264.742 342.135 265.436 C 345.509 265.818, 348.605 265.763, 349.014 265.315 C 349.423 264.867, 350.043 262.888, 350.393 260.918 C 350.896 258.076, 350.611 256.958, 349.014 255.513 C 347.674 254.300, 347 252.429, 347 249.922 C 347 247.327, 347.806 245.196, 349.589 243.077 C 351.013 241.385, 352.952 240, 353.899 240 C 355.310 240, 355.969 237.974, 357.560 228.750 C 358.627 222.563, 359.500 216.865, 359.500 216.089 C 359.500 215.313, 357.925 214.110, 356 213.415 C 354.075 212.721, 349.125 212.141, 345 212.128 C 340.435 212.113, 336.032 212.712, 333.750 213.658 M 361.526 218.250 C 361.300 218.938, 360.277 224.043, 359.253 229.596 L 357.391 239.691 362.156 241.877 C 366.139 243.704, 367.025 244.616, 367.554 247.434 C 367.975 249.680, 367.615 252.010, 366.474 254.414 C 365.425 256.624, 363.819 258.258, 362.327 258.633 C 360.987 258.969, 358.376 258.998, 356.524 258.698 C 354.077 258.301, 352.998 258.563, 352.578 259.657 C 352.260 260.486, 352 262.027, 352 263.082 L 352 265 357.250 265.010 C 360.692 265.016, 364.222 265.838, 367.500 267.397 C 370.250 268.704, 374.633 271.317, 377.239 273.204 C 379.846 275.090, 387.423 281.554, 394.078 287.567 C 400.733 293.580, 408.164 300.823, 410.590 303.661 C 413.156 306.662, 417.178 309.906, 420.198 311.411 C 423.055 312.835, 427.064 314, 429.107 314 C 432.028 314, 433.376 313.342, 435.411 310.923 C 436.835 309.231, 438.262 306.804, 438.582 305.531 C 438.901 304.257, 438.493 301.929, 437.675 300.358 C 436.857 298.786, 433.558 294.947, 430.344 291.827 C 427.130 288.706, 420 282.659, 414.500 278.388 C 409 274.118, 400.675 267.708, 396 264.145 C 391.325 260.581, 386.009 256.279, 384.186 254.583 C 382.363 252.887, 379.609 249.250, 378.066 246.500 C 376.523 243.750, 374.011 238.125, 372.484 234 C 370.956 229.875, 368.159 224.363, 366.268 221.750 C 364.377 219.137, 362.629 217, 362.383 217 C 362.138 217, 361.752 217.563, 361.526 218.250 M 420.041 248.135 L 403.600 267.269 406.550 269.630 C 408.173 270.928, 409.797 271.992, 410.161 271.995 C 410.524 271.998, 418.336 263.591, 427.520 253.313 L 444.219 234.627 440.859 231.840 C 439.012 230.308, 437.271 229.042, 436.991 229.027 C 436.711 229.012, 429.084 237.611, 420.041 248.135 M 351.073 244.635 C 349.933 246.084, 349 248.566, 349 250.150 C 349 252.325, 349.794 253.514, 352.250 255.011 C 354.038 256.101, 357.195 256.994, 359.266 256.996 L 363.032 257 364.651 253.606 C 365.602 251.612, 366.012 249.185, 365.646 247.725 C 365.267 246.215, 363.681 244.602, 361.610 243.619 C 359.733 242.729, 357.061 242, 355.671 242 C 354.133 242, 352.334 243.031, 351.073 244.635 M 354 245.815 C 354 246.263, 355.590 247.388, 357.534 248.315 C 359.478 249.242, 361.278 250, 361.534 250 C 361.790 250, 362 249.633, 362 249.185 C 362 248.737, 360.410 247.612, 358.466 246.685 C 356.522 245.758, 354.722 245, 354.466 245 C 354.210 245, 354 245.367, 354 245.815 M 352 249.815 C 352 250.263, 353.590 251.388, 355.534 252.315 C 357.478 253.242, 359.278 254, 359.534 254 C 359.790 254, 360 253.633, 360 253.185 C 360 252.737, 358.410 251.612, 356.466 250.685 C 354.522 249.758, 352.722 249, 352.466 249 C 352.210 249, 352 249.367, 352 249.815 M 385.636 288.020 C 384.186 289.744, 383 291.484, 383 291.889 C 383 292.293, 384.301 293.586, 385.891 294.761 L 388.782 296.899 390.186 295.199 C 390.958 294.265, 392.123 292.789, 392.776 291.920 C 393.749 290.625, 393.449 289.846, 391.118 287.613 L 388.273 284.887 385.636 288.020 M 368.186 287.864 C 367.247 288.459, 370.735 292.028, 380.388 300.349 C 387.823 306.757, 394.152 312, 394.453 312 C 394.754 312, 395 310.443, 395 308.540 C 395 306.054, 394.229 304.366, 392.260 302.540 C 390.753 301.143, 389.205 300, 388.819 300 C 388.434 300, 387.835 300.457, 387.490 301.016 C 387.144 301.575, 386.421 301.760, 385.882 301.427 C 385.257 301.041, 385.295 300.349, 385.989 299.513 C 386.811 298.522, 386.426 297.694, 384.403 296.102 C 382.933 294.946, 381.368 294, 380.924 294 C 380.481 294, 379.835 294.457, 379.490 295.016 C 379.144 295.575, 378.421 295.760, 377.882 295.427 C 377.268 295.048, 377.350 294.284, 378.100 293.380 C 379.054 292.230, 378.912 291.633, 377.398 290.435 C 376.354 289.608, 374.458 288.497, 373.185 287.966 C 371.912 287.435, 370.562 287.007, 370.185 287.015 C 369.808 287.024, 368.909 287.406, 368.186 287.864 M 361.393 290.582 C 361.727 291.452, 362 292.512, 362 292.937 C 362 293.363, 368.102 298.747, 375.559 304.903 C 383.017 311.058, 390.217 316.512, 391.559 317.023 C 393.570 317.787, 393.987 317.647, 393.928 316.225 C 393.888 315.276, 387.168 308.762, 378.995 301.750 C 370.822 294.738, 363.381 289, 362.460 289 C 361.344 289, 360.988 289.528, 361.393 290.582 M 392.902 295.138 L 390.649 298.301 393.211 300.505 C 394.620 301.717, 396.083 303.687, 396.463 304.883 C 396.842 306.079, 396.838 310, 396.453 313.596 L 395.753 320.134 392.126 319.600 L 388.500 319.067 369.503 341.667 C 359.055 354.098, 349.492 364.730, 348.253 365.294 C 347.014 365.859, 346 366.699, 346 367.161 C 346 367.622, 346.413 368, 346.918 368 C 347.423 368, 348.508 368.258, 349.328 368.572 C 350.269 368.933, 351.061 368.383, 351.475 367.080 C 351.835 365.944, 353.851 362.838, 355.955 360.176 C 358.726 356.670, 361.987 354.189, 367.793 351.169 C 372.200 348.876, 376.457 347, 377.253 347 C 378.049 347, 380.498 345.697, 382.696 344.105 C 384.894 342.513, 388.181 340.441, 390.001 339.500 C 392.091 338.419, 394.450 337.997, 396.405 338.355 C 398.107 338.667, 400.432 339.196, 401.571 339.531 L 403.642 340.140 404.924 335.820 C 405.629 333.444, 406.694 330.902, 407.290 330.172 C 407.887 329.442, 410.653 327.687, 413.437 326.273 C 416.222 324.860, 419.929 323.755, 421.676 323.818 C 424.156 323.908, 425.554 323.133, 428.065 320.274 L 431.278 316.614 425.730 315.506 C 422.679 314.897, 418.454 313.193, 416.341 311.721 C 414.228 310.248, 409.911 306.138, 406.747 302.587 C 403.582 299.036, 399.679 295.196, 398.074 294.053 L 395.155 291.974 392.902 295.138 M 342.338 318.033 C 331.977 330.205, 322.958 341.365, 322.295 342.832 C 321.632 344.299, 321.070 347.232, 321.045 349.349 C 321.020 351.466, 321.707 354.687, 322.571 356.508 C 323.435 358.329, 325.017 360.610, 326.087 361.579 C 327.157 362.547, 330.612 363.759, 333.766 364.272 C 336.920 364.786, 340.733 365.178, 342.239 365.144 C 343.745 365.110, 345.850 364.616, 346.916 364.045 C 347.982 363.475, 357.437 352.883, 367.927 340.508 C 378.417 328.134, 387 317.803, 387 317.552 C 387 317.301, 381.934 312.911, 375.743 307.798 C 369.552 302.684, 363.741 297.915, 362.831 297.201 L 361.176 295.902 342.338 318.033 M 355.804 312.250 C 351.742 316.788, 345.357 323.973, 341.616 328.218 C 337.874 332.463, 334.984 336.452, 335.194 337.082 C 335.404 337.712, 341.883 331.089, 349.593 322.364 C 357.302 313.639, 363.949 305.938, 364.364 305.250 C 364.779 304.563, 364.684 304, 364.153 304 C 363.622 304, 359.865 307.712, 355.804 312.250 M 356.124 326.069 C 348.356 334.888, 342 342.530, 342 343.051 C 342 343.573, 342.337 343.967, 342.750 343.926 C 343.163 343.885, 346.650 340.211, 350.500 335.762 C 354.350 331.314, 360.769 323.953, 364.765 319.405 C 368.761 314.858, 371.629 310.889, 371.139 310.586 C 370.649 310.283, 363.892 317.251, 356.124 326.069 M 364.084 332.045 C 356.338 340.877, 350 348.531, 350 349.052 C 350 349.573, 350.337 349.970, 350.750 349.933 C 351.163 349.897, 355.861 344.834, 361.191 338.683 C 366.521 332.533, 372.941 325.169, 375.458 322.319 C 377.974 319.470, 379.614 316.879, 379.101 316.562 C 378.587 316.245, 371.830 323.212, 364.084 332.045 M 416.635 337.073 C 414.720 338.579, 414 340.066, 414 342.514 C 414 344.366, 414.346 346.096, 414.768 346.357 C 415.191 346.618, 415.371 345.091, 415.168 342.962 L 414.799 339.093 418.149 337.050 C 419.992 335.927, 420.998 335.006, 420.385 335.004 C 419.772 335.002, 418.084 335.933, 416.635 337.073 M 424.204 336.955 C 424.875 338.030, 425.609 338.724, 425.836 338.498 C 426.062 338.271, 425.981 337.392, 425.655 336.543 C 425.329 335.694, 424.595 335, 424.023 335 C 423.365 335, 423.431 335.717, 424.204 336.955 M 426.395 353.500 C 426.396 361.200, 426.553 364.218, 426.743 360.206 C 426.934 356.195, 426.932 349.895, 426.741 346.206 C 426.549 342.518, 426.393 345.800, 426.395 353.500 M 327.975 344.565 C 327.439 345.976, 327 348.023, 327 349.115 C 327 350.206, 327.694 352.442, 328.543 354.082 C 329.391 355.723, 330.480 356.822, 330.962 356.524 C 331.443 356.226, 331.152 354.608, 330.314 352.928 C 329.476 351.249, 329.005 348.890, 329.267 347.687 C 329.529 346.484, 330.074 344.712, 330.478 343.750 C 330.928 342.681, 330.774 342, 330.082 342 C 329.460 342, 328.512 343.154, 327.975 344.565 M 392.921 350.750 L 391.596 352.500 392.998 351.250 C 393.769 350.563, 395.124 350, 396.009 350 C 396.894 350, 399.842 352.582, 402.559 355.738 C 405.277 358.894, 409.038 362.832, 410.917 364.488 C 412.796 366.145, 414.783 367.500, 415.333 367.500 C 415.883 367.500, 416.518 366.825, 416.743 366 L 417.152 364.500 416.038 366 C 415.111 367.249, 413.449 365.949, 406.127 358.250 C 401.289 353.163, 396.636 349, 395.787 349 C 394.939 349, 393.649 349.788, 392.921 350.750 M 415 349.500 C 415 349.775, 415.225 350, 415.500 350 C 415.775 350, 416 349.775, 416 349.500 C 416 349.225, 415.775 349, 415.500 349 C 415.225 349, 415 349.225, 415 349.500 M 388.872 353.750 L 387.500 355.500 389.250 354.128 C 390.212 353.373, 391 352.585, 391 352.378 C 391 352.170, 390.830 352, 390.622 352 C 390.415 352, 389.627 352.788, 388.872 353.750 M 415.300 357 C 415.300 360.025, 415.487 361.262, 415.716 359.750 C 415.945 358.238, 415.945 355.762, 415.716 354.250 C 415.487 352.738, 415.300 353.975, 415.300 357 M 389.705 358.500 C 390.883 360.150, 394.581 364.186, 397.924 367.469 C 401.266 370.751, 404 373.143, 404 372.784 C 404 372.424, 400.302 368.388, 395.782 363.815 C 391.262 359.242, 388.527 356.850, 389.705 358.500 M 376 359 L 374.500 359.969 376 359.969 C 376.825 359.969, 378.175 359.533, 379 359 L 380.500 358.031 379 358.031 C 378.175 358.031, 376.825 358.467, 376 359 M 382 358.500 C 382 358.775, 382.225 359, 382.500 359 C 382.775 359, 383 358.775, 383 358.500 C 383 358.225, 382.775 358, 382.500 358 C 382.225 358, 382 358.225, 382 358.500 M 384.086 359.500 C 384.116 360.050, 384.527 361.400, 385 362.500 C 385.567 363.819, 385.878 363.989, 385.914 363 C 385.945 362.175, 385.533 360.825, 385 360 C 384.467 359.175, 384.055 358.950, 384.086 359.500 M 369.361 362.853 C 367.195 364.423, 364.600 367.010, 363.595 368.603 L 361.768 371.500 364.651 368.500 C 366.236 366.850, 369.101 364.284, 371.017 362.797 C 372.933 361.310, 374.230 360.073, 373.900 360.047 C 373.570 360.021, 371.528 361.284, 369.361 362.853 M 385.506 365.902 C 386.020 366.803, 385.647 367.785, 384.462 368.652 C 383.447 369.393, 383.099 370, 383.686 370 C 384.274 370, 385.331 369.306, 386.035 368.458 C 387.076 367.203, 387.072 366.690, 386.011 365.708 C 384.976 364.750, 384.872 364.790, 385.506 365.902 M 426 369 C 426 369.733, 426.300 370.033, 426.667 369.667 C 427.033 369.300, 427.033 368.700, 426.667 368.333 C 426.300 367.967, 426 368.267, 426 369 M 378 371.500 C 376.625 372.286, 375.950 372.929, 376.500 372.929 C 377.050 372.929, 378.625 372.286, 380 371.500 C 381.375 370.714, 382.050 370.071, 381.500 370.071 C 380.950 370.071, 379.375 370.714, 378 371.500 M 359.954 374.086 C 359.340 375.233, 359.026 376.360, 359.257 376.590 C 359.487 376.820, 360.189 375.882, 360.816 374.504 C 361.444 373.127, 361.758 372, 361.514 372 C 361.270 372, 360.568 372.939, 359.954 374.086 M 426 372.500 C 426 372.775, 426.225 373, 426.500 373 C 426.775 373, 427 372.775, 427 372.500 C 427 372.225, 426.775 372, 426.500 372 C 426.225 372, 426 372.225, 426 372.500 M 372.073 375.635 C 370.933 377.084, 370.014 378.772, 370.030 379.385 C 370.047 379.998, 370.560 379.600, 371.170 378.500 C 371.781 377.400, 372.962 375.712, 373.795 374.750 C 374.628 373.788, 375.048 373, 374.728 373 C 374.407 373, 373.212 374.186, 372.073 375.635 M 409.796 377.718 C 412.709 380.392, 415.165 383.543, 415.254 384.721 C 415.343 385.898, 415.711 386.678, 416.073 386.455 C 416.436 386.231, 416.519 385.024, 416.260 383.774 C 416 382.523, 413.248 379.555, 410.144 377.179 L 404.500 372.857 409.796 377.718 M 333.558 375.907 C 333.249 376.405, 333.898 376.578, 334.999 376.290 C 336.099 376.002, 337 375.594, 337 375.383 C 337 375.173, 336.352 375, 335.559 375 C 334.766 375, 333.866 375.408, 333.558 375.907 M 325.057 379.074 C 322.723 380.764, 321.051 382.384, 321.341 382.674 C 321.631 382.964, 322.910 382.204, 324.184 380.984 C 325.458 379.765, 327.850 378.162, 329.500 377.423 C 331.150 376.683, 331.780 376.061, 330.900 376.039 C 330.020 376.018, 327.391 377.383, 325.057 379.074 M 342.058 377.969 C 344.015 379.004, 346.911 381.900, 348.494 384.405 C 350.078 386.910, 351.558 388.776, 351.783 388.550 C 352.008 388.325, 350.778 386.085, 349.049 383.572 C 347.320 381.059, 344.599 378.327, 343.003 377.501 C 341.406 376.676, 339.739 376.020, 339.300 376.044 C 338.860 376.069, 340.101 376.935, 342.058 377.969 M 427 376.500 C 427 376.775, 427.225 377, 427.500 377 C 427.775 377, 428 376.775, 428 376.500 C 428 376.225, 427.775 376, 427.500 376 C 427.225 376, 427 376.225, 427 376.500 M 357.881 380.781 C 357.552 382.769, 357.698 383.702, 358.253 383.147 C 358.757 382.643, 359.002 381.166, 358.797 379.865 L 358.425 377.500 357.881 380.781 M 387.682 385.096 C 385.692 388.449, 384.649 390.706, 385.364 390.113 C 386.078 389.520, 387.892 386.777, 389.394 384.017 C 390.896 381.258, 391.939 379, 391.713 379 C 391.486 379, 389.672 381.743, 387.682 385.096 M 394.083 379.261 C 394.313 379.404, 395.625 380.417, 397 381.511 L 399.500 383.500 397.595 381.250 C 396.547 380.012, 395.235 379, 394.678 379 C 394.122 379, 393.854 379.117, 394.083 379.261 M 427 380 C 427 380.733, 427.300 381.033, 427.667 380.667 C 428.033 380.300, 428.033 379.700, 427.667 379.333 C 427.300 378.967, 427 379.267, 427 380 M 369.252 384.500 C 369.263 386.700, 369.468 387.482, 369.707 386.238 C 369.946 384.994, 369.937 383.194, 369.687 382.238 C 369.437 381.282, 369.241 382.300, 369.252 384.500 M 427 382.500 C 427 382.775, 427.225 383, 427.500 383 C 427.775 383, 428 382.775, 428 382.500 C 428 382.225, 427.775 382, 427.500 382 C 427.225 382, 427 382.225, 427 382.500 M 318.954 386.086 C 318.340 387.233, 318.026 388.360, 318.257 388.590 C 318.487 388.820, 319.189 387.882, 319.816 386.504 C 320.444 385.127, 320.758 384, 320.514 384 C 320.270 384, 319.568 384.939, 318.954 386.086 M 357 386 C 357 386.733, 357.300 387.033, 357.667 386.667 C 358.033 386.300, 358.033 385.700, 357.667 385.333 C 357.300 384.967, 357 385.267, 357 386 M 426 385.500 C 426 385.775, 426.225 386, 426.500 386 C 426.775 386, 427 385.775, 427 385.500 C 427 385.225, 426.775 385, 426.500 385 C 426.225 385, 426 385.225, 426 385.500 M 332.500 386.954 C 331.400 387.409, 329.517 388.843, 328.317 390.141 C 327.116 391.438, 325.653 393.767, 325.067 395.315 C 324.480 396.863, 324.032 398.663, 324.070 399.315 C 324.109 399.967, 324.793 398.720, 325.589 396.544 C 326.386 394.369, 328.008 391.556, 329.193 390.294 C 330.379 389.032, 331.919 388, 332.615 388 C 333.312 388, 334.160 387.550, 334.500 387 C 334.840 386.450, 334.979 386.029, 334.809 386.063 C 334.639 386.098, 333.600 386.499, 332.500 386.954 M 396.421 390.637 C 395.277 392.985, 394.718 394.674, 395.178 394.390 C 395.638 394.106, 396.713 392.521, 397.568 390.869 C 398.422 389.216, 398.982 387.527, 398.811 387.116 C 398.640 386.704, 397.564 388.288, 396.421 390.637 M 337.563 389.456 C 338.448 390.807, 338.843 392.494, 338.439 393.206 C 337.896 394.166, 338.015 394.216, 338.901 393.402 C 339.827 392.551, 339.824 391.708, 338.887 389.652 C 338.223 388.193, 337.291 387, 336.816 387 C 336.342 387, 336.678 388.105, 337.563 389.456 M 357 388.500 C 357 388.775, 357.225 389, 357.500 389 C 357.775 389, 358 388.775, 358 388.500 C 358 388.225, 357.775 388, 357.500 388 C 357.225 388, 357 388.225, 357 388.500 M 415 391.500 C 415 393.425, 415.176 395, 415.391 395 C 415.605 395, 415.965 393.425, 416.190 391.500 C 416.415 389.575, 416.239 388, 415.799 388 C 415.360 388, 415 389.575, 415 391.500 M 426.272 392 C 426.272 394.475, 426.467 395.488, 426.706 394.250 C 426.944 393.012, 426.944 390.988, 426.706 389.750 C 426.467 388.512, 426.272 389.525, 426.272 392 M 370 389.500 C 370 389.775, 370.225 390, 370.500 390 C 370.775 390, 371 389.775, 371 389.500 C 371 389.225, 370.775 389, 370.500 389 C 370.225 389, 370 389.225, 370 389.500 M 317.232 393 C 317.232 394.925, 317.438 395.712, 317.689 394.750 C 317.941 393.788, 317.941 392.212, 317.689 391.250 C 317.438 390.288, 317.232 391.075, 317.232 393 M 352 390.500 C 352 390.775, 352.225 391, 352.500 391 C 352.775 391, 353 390.775, 353 390.500 C 353 390.225, 352.775 390, 352.500 390 C 352.225 390, 352 390.225, 352 390.500 M 358.010 390.800 C 358.004 391.514, 358.728 393.539, 359.617 395.300 C 360.506 397.060, 362.194 399.555, 363.367 400.845 C 364.540 402.135, 366.715 403.822, 368.200 404.595 C 369.686 405.368, 371.711 405.980, 372.700 405.956 C 373.690 405.932, 372.783 405.300, 370.684 404.551 C 368.585 403.803, 365.934 402.360, 364.792 401.345 C 363.651 400.330, 361.660 397.250, 360.368 394.500 C 359.076 391.750, 358.015 390.085, 358.010 390.800 M 372.085 392.355 C 372.957 393.314, 374.532 394.159, 375.585 394.233 C 376.638 394.306, 378.738 394.050, 380.250 393.664 C 381.762 393.278, 383 392.465, 383 391.859 C 383 391.093, 382.562 391.119, 381.569 391.942 C 380.782 392.596, 378.773 393.169, 377.104 393.216 C 375.435 393.264, 373.266 392.696, 372.285 391.956 L 370.500 390.610 372.085 392.355 M 305.500 392.681 C 306.600 392.984, 307.872 393.742, 308.326 394.366 C 308.872 395.115, 309.015 394.991, 308.748 394 C 308.525 393.175, 307.254 392.417, 305.922 392.315 C 304.012 392.170, 303.923 392.247, 305.500 392.681 M 353 392.500 C 353 392.775, 353.225 393, 353.500 393 C 353.775 393, 354 392.775, 354 392.500 C 354 392.225, 353.775 392, 353.500 392 C 353.225 392, 353 392.225, 353 392.500 M 298.500 395 C 298.076 396.336, 296.975 397.007, 295.183 397.022 C 293.707 397.034, 290.700 397.875, 288.500 398.890 C 286.300 399.905, 283.377 402.033, 282.004 403.618 L 279.507 406.500 282.504 403.803 C 284.152 402.320, 287.173 400.407, 289.218 399.553 C 291.263 398.699, 294.300 398, 295.968 398 C 298.025 398, 299 397.507, 299 396.468 C 299 395.625, 300.012 394.529, 301.250 394.031 L 303.500 393.127 301.317 393.063 C 299.977 393.024, 298.890 393.772, 298.500 395 M 334.507 394.989 C 334.157 395.555, 334.558 395.723, 335.448 395.382 C 336.302 395.054, 337 394.609, 337 394.393 C 337 394.177, 336.577 394, 336.059 394 C 335.541 394, 334.843 394.445, 334.507 394.989 M 354.031 394.500 C 354.031 395.050, 354.467 396.175, 355 397 C 355.533 397.825, 355.969 398.050, 355.969 397.500 C 355.969 396.950, 355.533 395.825, 355 395 C 354.467 394.175, 354.031 393.950, 354.031 394.500 M 309 396.500 C 309 396.775, 309.225 397, 309.500 397 C 309.775 397, 310 396.775, 310 396.500 C 310 396.225, 309.775 396, 309.500 396 C 309.225 396, 309 396.225, 309 396.500 M 328.453 400.250 L 324.500 404.500 328.750 400.547 C 331.087 398.373, 333 396.460, 333 396.297 C 333 396.134, 332.866 396, 332.703 396 C 332.540 396, 330.627 397.913, 328.453 400.250 M 389.747 399.342 C 387.683 401.179, 384.135 403.295, 381.862 404.046 C 379.589 404.796, 378.243 405.581, 378.872 405.791 C 379.500 406, 381.951 405.234, 384.318 404.088 C 386.684 402.943, 389.915 400.654, 391.498 399.003 C 393.080 397.351, 394.177 396, 393.937 396.001 C 393.697 396.001, 391.811 397.505, 389.747 399.342 M 414.079 398.185 C 414.036 399.662, 413.551 402.050, 413.003 403.492 C 412.389 405.107, 412.374 405.887, 412.964 405.522 C 413.491 405.196, 414.211 403.395, 414.562 401.519 C 414.914 399.642, 414.967 397.521, 414.680 396.804 C 414.393 396.087, 414.122 396.708, 414.079 398.185 M 425 398 C 425 398.733, 425.300 399.033, 425.667 398.667 C 426.033 398.300, 426.033 397.700, 425.667 397.333 C 425.300 396.967, 425 397.267, 425 398 M 310.032 399 C 310.011 399.825, 311.190 403.318, 312.652 406.762 C 314.114 410.206, 315.452 412.881, 315.626 412.707 C 315.800 412.534, 314.620 409.041, 313.005 404.946 C 311.390 400.851, 310.052 398.175, 310.032 399 M 318.500 399 C 319.600 399.473, 321.175 399.859, 322 399.859 C 322.945 399.859, 322.761 399.542, 321.500 399 C 320.400 398.527, 318.825 398.141, 318 398.141 C 317.055 398.141, 317.239 398.458, 318.500 399 M 356.455 401.828 C 356.589 403.535, 357.157 405.510, 357.717 406.216 C 358.277 406.922, 359.276 408.541, 359.937 409.814 C 360.874 411.619, 360.872 412.449, 359.928 413.587 C 358.937 414.781, 359.015 414.932, 360.359 414.416 C 361.261 414.069, 361.998 413.272, 361.996 412.643 C 361.994 412.014, 361.094 410.027, 359.996 408.226 C 358.898 406.425, 357.993 404.175, 357.985 403.226 C 357.976 402.277, 357.574 400.875, 357.090 400.111 C 356.494 399.170, 356.289 399.724, 356.455 401.828 M 425.195 402.500 C 425.215 404.150, 425.439 404.704, 425.693 403.731 C 425.947 402.758, 425.930 401.408, 425.656 400.731 C 425.382 400.054, 425.175 400.850, 425.195 402.500 M 342 401.500 C 342 401.775, 342.225 402, 342.500 402 C 342.775 402, 343 401.775, 343 401.500 C 343 401.225, 342.775 401, 342.500 401 C 342.225 401, 342 401.225, 342 401.500 M 345.042 403.078 C 345.654 404.221, 345.868 405.909, 345.518 406.828 C 345.051 408.053, 345.179 408.205, 345.996 407.395 C 346.634 406.762, 346.827 405.159, 346.447 403.645 C 346.082 402.190, 345.366 401, 344.856 401 C 344.347 401, 344.430 401.935, 345.042 403.078 M 337.034 404.966 C 335.260 406.701, 334.048 408.881, 334.116 410.216 L 334.232 412.500 334.711 410.500 C 334.975 409.400, 336.586 407.038, 338.291 405.250 C 339.997 403.462, 341.095 402, 340.731 402 C 340.367 402, 338.703 403.335, 337.034 404.966 M 324 405.500 C 324 405.775, 324.225 406, 324.500 406 C 324.775 406, 325 405.775, 325 405.500 C 325 405.225, 324.775 405, 324.500 405 C 324.225 405, 324 405.225, 324 405.500 M 376 405.500 C 376 405.775, 376.225 406, 376.500 406 C 376.775 406, 377 405.775, 377 405.500 C 377 405.225, 376.775 405, 376.500 405 C 376.225 405, 376 405.225, 376 405.500 M 278.162 409.543 C 277.523 410.946, 277.018 412.635, 277.039 413.297 C 277.061 413.959, 277.743 412.969, 278.554 411.099 C 279.366 409.228, 279.872 407.539, 279.678 407.344 C 279.484 407.150, 278.802 408.140, 278.162 409.543 M 296.083 407.356 C 296.313 407.552, 297.985 407.996, 299.800 408.341 C 301.861 408.734, 302.871 408.600, 302.491 407.985 C 302.156 407.443, 300.484 407, 298.774 407 C 297.065 407, 295.854 407.160, 296.083 407.356 M 323 408 C 323 408.733, 323.300 409.033, 323.667 408.667 C 324.033 408.300, 324.033 407.700, 323.667 407.333 C 323.300 406.967, 323 407.267, 323 408 M 414.500 408 C 414.840 408.550, 415.343 409, 415.618 409 C 415.893 409, 415.840 408.550, 415.500 408 C 415.160 407.450, 414.657 407, 414.382 407 C 414.107 407, 414.160 407.450, 414.500 408 M 424 407.500 C 424 407.775, 424.225 408, 424.500 408 C 424.775 408, 425 407.775, 425 407.500 C 425 407.225, 424.775 407, 424.500 407 C 424.225 407, 424 407.225, 424 407.500 M 290.589 411.077 C 289.165 412.769, 288.002 414.681, 288.004 415.327 C 288.006 415.972, 288.875 415.077, 289.936 413.338 C 290.996 411.599, 292.682 409.700, 293.682 409.118 C 294.682 408.537, 294.978 408.047, 294.339 408.030 C 293.700 408.014, 292.013 409.385, 290.589 411.077 M 339.500 410.055 C 336.900 411.285, 336.200 411.949, 337.500 411.952 C 338.600 411.954, 340.625 411.076, 342 410 C 343.375 408.924, 344.275 408.071, 344 408.103 C 343.725 408.135, 341.700 409.014, 339.500 410.055 M 417.333 409.667 C 417.700 410.033, 418.300 410.033, 418.667 409.667 C 419.033 409.300, 418.733 409, 418 409 C 417.267 409, 416.967 409.300, 417.333 409.667 M 420.558 409.907 C 420.249 410.405, 420.898 410.578, 421.999 410.290 C 423.099 410.002, 424 409.594, 424 409.383 C 424 409.173, 423.352 409, 422.559 409 C 421.766 409, 420.866 409.408, 420.558 409.907 M 303.545 412.250 C 303.919 413.488, 304.636 414.940, 305.140 415.477 C 305.643 416.015, 305.548 415.002, 304.929 413.227 C 304.311 411.452, 303.593 410, 303.335 410 C 303.077 410, 303.171 411.012, 303.545 412.250 M 322.086 411.349 C 322.039 412.366, 322.751 414.781, 323.670 416.717 C 324.588 418.652, 326.726 421.081, 328.420 422.114 C 330.266 423.240, 333.103 423.930, 335.500 423.836 L 339.500 423.680 336 423.304 C 334.075 423.097, 331.241 422.431, 329.703 421.823 C 328.164 421.216, 326.184 419.322, 325.301 417.616 C 324.419 415.909, 323.354 413.385, 322.934 412.006 C 322.389 410.213, 322.147 410.026, 322.086 411.349 M 316.116 415.750 C 316.052 416.988, 316.900 418.900, 318 420 C 319.100 421.100, 320 421.582, 320 421.071 C 320 420.561, 319.374 419.516, 318.608 418.751 C 317.842 417.985, 316.994 416.490, 316.724 415.429 L 316.232 413.500 316.116 415.750 M 187.750 417.210 C 184.756 418.496, 183 419.876, 183 420.943 C 183 421.875, 183.706 425.013, 184.568 427.917 C 185.430 430.821, 186.331 433.002, 186.570 432.764 C 186.808 432.525, 186.333 430.118, 185.513 427.415 C 184.693 424.712, 184.017 421.922, 184.011 421.214 C 184.005 420.507, 186.062 419.045, 188.583 417.964 C 191.104 416.884, 193.362 416, 193.602 416 C 193.843 416, 195.118 418.363, 196.438 421.250 C 197.757 424.137, 198.854 426.050, 198.877 425.500 C 198.899 424.950, 197.924 422.498, 196.709 420.051 C 195.494 417.604, 194.050 415.505, 193.500 415.387 C 192.950 415.268, 190.363 416.089, 187.750 417.210 M 245.750 416.572 C 244.238 417.393, 243 418.286, 243 418.558 C 243 418.829, 244.463 418.308, 246.250 417.399 C 248.037 416.489, 249.688 415.578, 249.917 415.373 C 250.146 415.168, 249.921 415.018, 249.417 415.040 C 248.912 415.062, 247.262 415.751, 245.750 416.572 M 251 415.500 C 251 415.775, 251.225 416, 251.500 416 C 251.775 416, 252 415.775, 252 415.500 C 252 415.225, 251.775 415, 251.500 415 C 251.225 415, 251 415.225, 251 415.500 M 257.333 415.667 C 257.700 416.033, 258.300 416.033, 258.667 415.667 C 259.033 415.300, 258.733 415, 258 415 C 257.267 415, 256.967 415.300, 257.333 415.667 M 276.300 420 C 276.300 423.025, 276.487 424.262, 276.716 422.750 C 276.945 421.238, 276.945 418.762, 276.716 417.250 C 276.487 415.738, 276.300 416.975, 276.300 420 M 349.573 416.521 C 348.513 417.323, 347.838 418.170, 348.073 418.404 C 348.308 418.637, 349.562 417.967, 350.861 416.914 C 352.159 415.861, 352.834 415.014, 352.361 415.032 C 351.887 415.049, 350.633 415.720, 349.573 416.521 M 355.500 416 C 353.870 416.701, 353.812 416.872, 355.191 416.930 C 356.121 416.968, 357.160 416.550, 357.500 416 C 357.840 415.450, 357.979 415.032, 357.809 415.070 C 357.639 415.109, 356.600 415.527, 355.500 416 M 260 416.500 C 260 416.775, 260.225 417, 260.500 417 C 260.775 417, 261 416.775, 261 416.500 C 261 416.225, 260.775 416, 260.500 416 C 260.225 416, 260 416.225, 260 416.500 M 264.992 420.750 C 266.831 423.087, 268.500 425, 268.703 425 C 268.905 425, 268.646 424.212, 268.127 423.250 C 267.608 422.288, 265.939 420.375, 264.417 419 L 261.650 416.500 264.992 420.750 M 287.079 418.583 C 287.127 419.748, 287.364 419.985, 287.683 419.188 C 287.972 418.466, 287.936 417.603, 287.604 417.271 C 287.272 416.939, 287.036 417.529, 287.079 418.583 M 305.150 419.327 C 305.063 420.971, 303.777 423.377, 302.077 425.077 C 300.469 426.685, 299.485 428, 299.890 428 C 300.295 428, 301.870 426.701, 303.390 425.114 C 305.448 422.967, 306.046 421.496, 305.727 419.364 L 305.300 416.500 305.150 419.327 M 239.981 420.523 C 238.924 421.796, 238.986 421.943, 240.359 421.416 C 241.261 421.069, 242 420.384, 242 419.893 C 242 419.402, 241.830 419, 241.622 419 C 241.415 419, 240.676 419.685, 239.981 420.523 M 344 420.583 L 341.500 421.971 343.643 421.985 C 344.822 421.993, 346.045 421.325, 346.362 420.500 C 346.678 419.675, 346.839 419.044, 346.719 419.098 C 346.598 419.152, 345.375 419.820, 344 420.583 M 288.063 423.139 C 288.029 424.041, 288.788 425.637, 289.750 426.686 C 290.712 427.736, 291.181 428.099, 290.790 427.493 C 290.400 426.888, 289.641 425.292, 289.104 423.946 C 288.486 422.400, 288.103 422.103, 288.063 423.139 M 340 422.500 C 340 422.775, 340.225 423, 340.500 423 C 340.775 423, 341 422.775, 341 422.500 C 341 422.225, 340.775 422, 340.500 422 C 340.225 422, 340 422.225, 340 422.500 M 237.278 424.250 C 236.746 424.938, 235.990 426.063, 235.597 426.750 C 235.204 427.438, 235.082 428, 235.326 428 C 235.570 428, 236.507 426.875, 237.408 425.500 C 238.309 424.125, 238.866 423, 238.645 423 C 238.425 423, 237.810 423.563, 237.278 424.250 M 320 423.500 C 320 423.775, 320.225 424, 320.500 424 C 320.775 424, 321 423.775, 321 423.500 C 321 423.225, 320.775 423, 320.500 423 C 320.225 423, 320 423.225, 320 423.500 M 248.306 426.573 L 245.500 429.146 248.750 426.885 C 250.537 425.641, 252 424.484, 252 424.312 C 252 424.140, 251.800 424, 251.556 424 C 251.311 424, 249.849 425.158, 248.306 426.573 M 255.750 425.989 C 257.538 427.079, 258.995 428.540, 258.989 429.235 C 258.983 429.931, 255.720 432.363, 251.739 434.639 L 244.500 438.778 243.820 437.139 L 243.141 435.500 243.070 437.191 C 243.032 438.121, 243.440 439.154, 243.979 439.487 C 244.517 439.819, 246.204 439.228, 247.729 438.174 C 249.253 437.119, 252.637 435.054, 255.250 433.586 C 257.863 432.117, 260 430.292, 260 429.530 C 260 428.769, 258.814 427.212, 257.365 426.073 C 255.916 424.933, 254.228 424.002, 253.615 424.004 C 253.002 424.006, 253.963 424.899, 255.750 425.989 M 321 425.500 C 321 425.775, 321.225 426, 321.500 426 C 321.775 426, 322 425.775, 322 425.500 C 322 425.225, 321.775 425, 321.500 425 C 321.225 425, 321 425.225, 321 425.500 M 269.079 427.583 C 269.127 428.748, 269.364 428.985, 269.683 428.188 C 269.972 427.466, 269.936 426.603, 269.604 426.271 C 269.272 425.939, 269.036 426.529, 269.079 427.583 M 199.121 428 C 199.104 428.825, 199.708 430.850, 200.464 432.500 C 201.219 434.150, 201.840 435.050, 201.843 434.500 C 201.846 433.950, 201.241 431.925, 200.500 430 C 199.759 428.075, 199.138 427.175, 199.121 428 M 277 428 C 277 428.733, 277.300 429.033, 277.667 428.667 C 278.033 428.300, 278.033 427.700, 277.667 427.333 C 277.300 426.967, 277 427.267, 277 428 M 322 427.500 C 322 427.775, 322.225 428, 322.500 428 C 322.775 428, 323 427.775, 323 427.500 C 323 427.225, 322.775 427, 322.500 427 C 322.225 427, 322 427.225, 322 427.500 M 297 428.500 C 297 428.775, 297.225 429, 297.500 429 C 297.775 429, 298 428.775, 298 428.500 C 298 428.225, 297.775 428, 297.500 428 C 297.225 428, 297 428.225, 297 428.500 M 234 430 C 234 430.733, 234.300 431.033, 234.667 430.667 C 235.033 430.300, 235.033 429.700, 234.667 429.333 C 234.300 428.967, 234 429.267, 234 430 M 293.813 429.683 C 294.534 429.972, 295.397 429.936, 295.729 429.604 C 296.061 429.272, 295.471 429.036, 294.417 429.079 C 293.252 429.127, 293.015 429.364, 293.813 429.683 M 323.015 430.583 C 323.024 431.637, 323.487 433.175, 324.046 434 C 324.787 435.095, 324.880 434.691, 324.390 432.500 C 324.021 430.850, 323.557 429.313, 323.359 429.083 C 323.162 428.854, 323.007 429.529, 323.015 430.583 M 244.345 431.543 C 244.019 432.392, 243.976 433.310, 244.249 433.583 C 244.523 433.856, 244.986 433.161, 245.279 432.040 C 245.573 430.918, 245.616 430, 245.375 430 C 245.134 430, 244.671 430.694, 244.345 431.543 M 270.116 431.744 C 270.043 433.152, 268.418 435.142, 265.750 437.089 C 263.413 438.794, 258.462 441.728, 254.750 443.607 C 251.037 445.487, 248 447.679, 248 448.477 C 248 449.276, 248.870 450.395, 249.934 450.965 C 250.998 451.534, 253.136 451.948, 254.684 451.884 C 256.651 451.803, 256.897 451.641, 255.500 451.345 C 254.400 451.112, 252.488 450.706, 251.250 450.442 C 250.012 450.178, 249.002 449.408, 249.004 448.731 C 249.007 448.054, 252.323 445.799, 256.373 443.720 C 260.423 441.640, 265.424 438.481, 267.486 436.698 C 270.145 434.400, 271.089 432.882, 270.733 431.479 L 270.232 429.500 270.116 431.744 M 278 430.500 C 278 430.775, 278.225 431, 278.500 431 C 278.775 431, 279 430.775, 279 430.500 C 279 430.225, 278.775 430, 278.500 430 C 278.225 430, 278 430.225, 278 430.500 M 233.232 435 C 233.232 436.925, 233.438 437.712, 233.689 436.750 C 233.941 435.788, 233.941 434.212, 233.689 433.250 C 233.438 432.288, 233.232 433.075, 233.232 435 M 279 432.500 C 279 432.775, 279.225 433, 279.500 433 C 279.775 433, 280 432.775, 280 432.500 C 280 432.225, 279.775 432, 279.500 432 C 279.225 432, 279 432.225, 279 432.500 M 307.624 434.637 C 306.592 436.052, 303.892 438.053, 301.624 439.083 C 299.356 440.113, 298.092 440.966, 298.816 440.978 C 299.539 440.990, 301.114 440.496, 302.316 439.880 C 303.517 439.264, 305.982 437.357, 307.794 435.642 C 310.542 433.039, 311.243 432.770, 312.028 434.012 C 312.546 434.830, 312.976 436.363, 312.985 437.417 C 312.993 438.471, 313.268 439.066, 313.595 438.738 C 313.922 438.411, 313.887 436.761, 313.516 435.072 C 313.086 433.116, 312.234 432.011, 311.171 432.031 C 310.252 432.049, 308.656 433.221, 307.624 434.637 M 187.247 435.250 C 187.501 435.938, 188.495 438.892, 189.456 441.815 C 190.417 444.738, 191.380 446.954, 191.595 446.738 C 191.810 446.523, 191.048 443.569, 189.901 440.174 C 188.755 436.778, 187.585 434, 187.301 434 C 187.018 434, 186.994 434.563, 187.247 435.250 M 281.593 436.102 C 282.639 437.259, 284.711 438.834, 286.198 439.602 C 287.684 440.371, 289.486 441, 290.200 440.999 C 290.915 440.999, 289.548 440.032, 287.162 438.851 C 284.776 437.670, 282.590 436.095, 282.305 435.352 C 282.019 434.608, 281.314 434, 280.738 434 C 280.162 434, 280.546 434.946, 281.593 436.102 M 202.031 436.500 C 202.031 437.050, 202.467 438.175, 203 439 C 203.533 439.825, 203.969 440.050, 203.969 439.500 C 203.969 438.950, 203.533 437.825, 203 437 C 202.467 436.175, 202.031 435.950, 202.031 436.500 M 324 437 C 324 437.733, 324.300 438.033, 324.667 437.667 C 325.033 437.300, 325.033 436.700, 324.667 436.333 C 324.300 435.967, 324 436.267, 324 437 M 268.094 441.250 C 267.085 443.587, 265.404 446.264, 264.359 447.197 C 263.314 448.131, 261.343 449.340, 259.979 449.884 L 257.500 450.873 259.560 450.937 C 260.693 450.971, 263.030 449.622, 264.753 447.937 C 266.477 446.252, 268.403 443.310, 269.034 441.398 C 269.987 438.510, 270.546 438.025, 272.340 438.527 C 274.051 439.005, 274.188 438.913, 273 438.081 C 272.175 437.503, 271.147 437.024, 270.714 437.015 C 270.282 437.007, 269.103 438.913, 268.094 441.250 M 275.500 440 C 275.840 440.550, 276.343 441, 276.618 441 C 276.893 441, 276.840 440.550, 276.500 440 C 276.160 439.450, 275.657 439, 275.382 439 C 275.107 439, 275.160 439.450, 275.500 440 M 216.454 441.634 C 216.871 442.660, 217.881 445.413, 218.700 447.750 C 219.568 450.229, 220.820 452, 221.705 452 C 222.917 452, 223.081 451.244, 222.522 448.250 C 222.136 446.188, 221.336 443.913, 220.743 443.195 C 220.150 442.478, 218.772 441.413, 217.681 440.829 L 215.697 439.767 216.454 441.634 M 233.106 441.500 C 233.054 442.600, 233.463 445.075, 234.016 447 C 234.568 448.925, 235.954 451.625, 237.095 453 L 239.170 455.500 237.086 451.500 C 235.940 449.300, 234.597 445.700, 234.101 443.500 C 233.606 441.300, 233.158 440.400, 233.106 441.500 M 312.968 441.750 C 312.951 442.712, 312.346 444.278, 311.624 445.229 C 310.901 446.180, 309.003 447.639, 307.405 448.473 C 305.679 449.373, 305.167 449.990, 306.144 449.994 C 307.049 449.997, 309.186 448.694, 310.894 447.099 C 312.602 445.503, 314 443.253, 314 442.099 C 314 440.944, 313.775 440, 313.500 440 C 313.225 440, 312.986 440.788, 312.968 441.750 M 324 440.500 C 324 440.775, 324.225 441, 324.500 441 C 324.775 441, 325 440.775, 325 440.500 C 325 440.225, 324.775 440, 324.500 440 C 324.225 440, 324 440.225, 324 440.500 M 204.047 441.730 C 204.021 442.406, 204.731 444.787, 205.625 447.021 C 206.519 449.255, 207.408 450.925, 207.601 450.732 C 207.794 450.540, 207.084 448.158, 206.023 445.441 C 204.962 442.723, 204.073 441.053, 204.047 441.730 M 278 442 C 278 442.733, 278.300 443.033, 278.667 442.667 C 279.033 442.300, 279.033 441.700, 278.667 441.333 C 278.300 440.967, 278 441.267, 278 442 M 293.269 441.693 C 294.242 441.947, 295.592 441.930, 296.269 441.656 C 296.946 441.382, 296.150 441.175, 294.500 441.195 C 292.850 441.215, 292.296 441.439, 293.269 441.693 M 324.079 443.583 C 324.127 444.748, 324.364 444.985, 324.683 444.188 C 324.972 443.466, 324.936 442.603, 324.604 442.271 C 324.272 441.939, 324.036 442.529, 324.079 443.583 M 278 445.500 C 278 445.775, 278.225 446, 278.500 446 C 278.775 446, 279 445.775, 279 445.500 C 279 445.225, 278.775 445, 278.500 445 C 278.225 445, 278 445.225, 278 445.500 M 294 446.500 C 294 446.775, 294.225 447, 294.500 447 C 294.775 447, 295 446.775, 295 446.500 C 295 446.225, 294.775 446, 294.500 446 C 294.225 446, 294 446.225, 294 446.500 M 323 447 C 323 447.733, 323.300 448.033, 323.667 447.667 C 324.033 447.300, 324.033 446.700, 323.667 446.333 C 323.300 445.967, 323 446.267, 323 447 M 276.564 448.707 C 276.022 450.132, 276.136 450.247, 277.124 449.267 C 277.808 448.588, 278.115 447.781, 277.807 447.474 C 277.499 447.166, 276.940 447.721, 276.564 448.707 M 296.733 448.124 C 297.412 448.808, 298.219 449.115, 298.526 448.807 C 298.834 448.499, 298.279 447.940, 297.293 447.564 C 295.868 447.022, 295.753 447.136, 296.733 448.124 M 192.112 448.500 C 192.134 449.050, 192.759 451.075, 193.500 453 C 194.383 455.292, 194.862 455.810, 194.888 454.500 C 194.911 453.400, 194.286 451.375, 193.500 450 C 192.714 448.625, 192.089 447.950, 192.112 448.500 M 292.162 450.543 C 291.523 451.946, 291 453.883, 291 454.847 C 291 455.811, 291.540 457.140, 292.200 457.800 C 292.860 458.460, 293.873 458.986, 294.450 458.970 C 295.027 458.953, 294.712 458.481, 293.750 457.920 C 292.788 457.359, 292 455.993, 292 454.885 C 292 453.776, 292.486 451.960, 293.081 450.849 C 293.676 449.738, 293.974 448.640, 293.743 448.410 C 293.513 448.180, 292.802 449.140, 292.162 450.543 M 300.813 449.683 C 301.534 449.972, 302.397 449.936, 302.729 449.604 C 303.061 449.272, 302.471 449.036, 301.417 449.079 C 300.252 449.127, 300.015 449.364, 300.813 449.683 M 319.146 452.089 C 317.851 453.727, 314.701 456.156, 312.146 457.487 C 309.591 458.818, 307.855 459.928, 308.290 459.953 C 308.724 459.979, 310.749 459.139, 312.790 458.088 C 314.830 457.036, 318.051 454.561, 319.946 452.588 C 321.842 450.614, 322.967 449.025, 322.446 449.055 C 321.926 449.086, 320.441 450.451, 319.146 452.089 M 271.209 454.753 C 269.398 456.677, 268.078 458.411, 268.274 458.607 C 268.470 458.803, 270.380 457.172, 272.518 454.982 C 274.656 452.792, 275.977 451.057, 275.453 451.127 C 274.929 451.197, 273.019 452.829, 271.209 454.753 M 208.031 452.500 C 208.031 453.050, 208.467 454.175, 209 455 C 209.533 455.825, 209.969 456.050, 209.969 455.500 C 209.969 454.950, 209.533 453.825, 209 453 C 208.467 452.175, 208.031 451.950, 208.031 452.500 M 239.933 457.382 C 240.721 458.352, 243.066 460.013, 245.143 461.073 C 247.221 462.133, 249.726 462.980, 250.710 462.956 C 251.695 462.932, 250.733 462.283, 248.572 461.513 C 246.412 460.743, 243.262 459.102, 241.572 457.866 C 239.453 456.315, 238.945 456.165, 239.933 457.382 M 195 457.500 C 195 457.775, 195.225 458, 195.500 458 C 195.775 458, 196 457.775, 196 457.500 C 196 457.225, 195.775 457, 195.500 457 C 195.225 457, 195 457.225, 195 457.500 M 210 457.500 C 210 457.775, 210.225 458, 210.500 458 C 210.775 458, 211 457.775, 211 457.500 C 211 457.225, 210.775 457, 210.500 457 C 210.225 457, 210 457.225, 210 457.500 M 196.071 459.500 C 196.071 460.050, 196.714 461.625, 197.500 463 C 198.286 464.375, 198.929 465.050, 198.929 464.500 C 198.929 463.950, 198.286 462.375, 197.500 461 C 196.714 459.625, 196.071 458.950, 196.071 459.500 M 211 459.941 C 211 460.459, 211.445 461.157, 211.989 461.493 C 212.555 461.843, 212.723 461.442, 212.382 460.552 C 212.054 459.698, 211.609 459, 211.393 459 C 211.177 459, 211 459.423, 211 459.941 M 226.751 461.692 C 224.139 463.146, 222.187 464.521, 222.414 464.748 C 222.641 464.974, 223.995 464.394, 225.422 463.459 C 226.850 462.523, 229.702 461.157, 231.759 460.423 C 233.933 459.647, 234.662 459.080, 233.500 459.068 C 232.400 459.057, 229.363 460.238, 226.751 461.692 M 237.610 460.951 C 238.221 461.803, 239.219 463.400, 239.830 464.500 C 240.440 465.600, 240.953 465.963, 240.970 465.306 C 240.986 464.649, 239.988 463.052, 238.750 461.757 C 237.512 460.462, 237 460.099, 237.610 460.951 M 266 459.500 C 266 459.775, 266.225 460, 266.500 460 C 266.775 460, 267 459.775, 267 459.500 C 267 459.225, 266.775 459, 266.500 459 C 266.225 459, 266 459.225, 266 459.500 M 296.333 459.667 C 296.700 460.033, 297.300 460.033, 297.667 459.667 C 298.033 459.300, 297.733 459, 297 459 C 296.267 459, 295.967 459.300, 296.333 459.667 M 264 460.500 C 264 460.775, 264.225 461, 264.500 461 C 264.775 461, 265 460.775, 265 460.500 C 265 460.225, 264.775 460, 264.500 460 C 264.225 460, 264 460.225, 264 460.500 M 300.762 460.707 C 302.006 460.946, 303.806 460.937, 304.762 460.687 C 305.718 460.437, 304.700 460.241, 302.500 460.252 C 300.300 460.263, 299.518 460.468, 300.762 460.707 M 259 462 C 256.940 462.660, 256.852 462.816, 258.500 462.885 C 259.600 462.931, 261.175 462.533, 262 462 C 262.825 461.467, 263.050 461.069, 262.500 461.115 C 261.950 461.161, 260.375 461.560, 259 462 M 254 462.500 C 254 462.775, 254.225 463, 254.500 463 C 254.775 463, 255 462.775, 255 462.500 C 255 462.225, 254.775 462, 254.500 462 C 254.225 462, 254 462.225, 254 462.500 M 279.405 464.111 C 278.357 465.272, 273.908 468.030, 269.518 470.239 C 263.305 473.365, 260.313 474.283, 256.018 474.378 C 252.983 474.445, 250.169 474.950, 249.765 475.500 C 249.361 476.050, 249.024 477.045, 249.015 477.711 C 249.007 478.378, 250.904 479.436, 253.231 480.062 C 255.558 480.689, 259.125 480.978, 261.158 480.706 C 263.488 480.393, 268.212 477.910, 273.942 473.986 C 278.940 470.562, 283.274 467.366, 283.573 466.882 C 283.871 466.399, 283.485 465.102, 282.713 464.001 L 281.311 461.999 279.405 464.111 M 213.068 463.316 C 213.030 463.764, 213.466 465.002, 214.035 466.066 C 214.605 467.130, 215.644 468, 216.344 468 C 217.045 468, 218.491 467.300, 219.559 466.445 L 221.500 464.890 219.316 465.945 C 218.114 466.525, 216.721 467, 216.219 467 C 215.716 467, 214.817 465.988, 214.220 464.750 C 213.624 463.512, 213.105 462.867, 213.068 463.316 M 202.629 474.664 C 204.578 479.524, 206.544 483.888, 206.998 484.363 C 207.460 484.844, 209.078 484.739, 210.663 484.124 L 213.500 483.024 210.500 483.530 L 207.500 484.036 204.742 477.268 C 203.226 473.546, 201.988 469.993, 201.992 469.372 C 201.997 468.752, 201.345 467.701, 200.544 467.036 C 199.700 466.336, 200.577 469.545, 202.629 474.664 M 240 469 C 240 469.550, 239.375 470, 238.611 470 C 237.847 470, 236.159 470.912, 234.861 472.026 L 232.500 474.052 236.750 471.925 C 239.088 470.755, 241 469.394, 241 468.899 C 241 468.405, 240.775 468, 240.500 468 C 240.225 468, 240 468.450, 240 469 M 231 474.500 C 231 474.775, 231.225 475, 231.500 475 C 231.775 475, 232 474.775, 232 474.500 C 232 474.225, 231.775 474, 231.500 474 C 231.225 474, 231 474.225, 231 474.500 M 229 475.500 C 229 475.775, 229.225 476, 229.500 476 C 229.775 476, 230 475.775, 230 475.500 C 230 475.225, 229.775 475, 229.500 475 C 229.225 475, 229 475.225, 229 475.500 M 222 478.500 C 219.525 479.825, 217.950 480.910, 218.500 480.910 C 219.050 480.910, 221.525 479.825, 224 478.500 C 226.475 477.175, 228.050 476.090, 227.500 476.090 C 226.950 476.090, 224.475 477.175, 222 478.500 M 216 481.500 C 216 481.775, 216.225 482, 216.500 482 C 216.775 482, 217 481.775, 217 481.500 C 217 481.225, 216.775 481, 216.500 481 C 216.225 481, 216 481.225, 216 481.500 M 214 482.500 C 214 482.775, 214.225 483, 214.500 483 C 214.775 483, 215 482.775, 215 482.500 C 215 482.225, 214.775 482, 214.500 482 C 214.225 482, 214 482.225, 214 482.500" stroke="none" fill="#faf2d4" fill-rule="evenodd"/></svg>